<svg xmlns="http://www.w3.org/2000/svg" viewBox="0 0 750 500"><g id="freepik--background-complete--inject-117"><path d="M38.77,383.73a23.93,23.93,0,0,0-10.22-3.51,6.79,6.79,0,0,0-4.84.89,1,1,0,0,0-.49.88,1,1,0,0,0,.47.6,14.62,14.62,0,0,0,15.08,1.14" style="fill:#e0e0e0"></path><path d="M38.5,383.45a50.73,50.73,0,0,1-6.6-5.81A16.67,16.67,0,0,1,27.77,370a3.1,3.1,0,0,1,.32-2.57c5.26,4.11,9.4,9.43,10.41,16" style="fill:#e0e0e0"></path><path d="M38.71,383.69a24,24,0,0,1,.12-8.66,11.73,11.73,0,0,1,4.62-7.15c.91,2.12.52,4.57-.12,6.79a33,33,0,0,1-4.58,9.64" style="fill:#e0e0e0"></path><path d="M43.87,392.94a15.16,15.16,0,0,0-8.2,4.14A15.5,15.5,0,0,0,31,405.13c3.07-.19,5.67-2.35,7.56-4.78s3.2-5.09,5.28-7.37" style="fill:#e0e0e0"></path><path d="M45,394.41a20.23,20.23,0,0,1,2.33-19.12A24.32,24.32,0,0,1,45,394.41" style="fill:#e0e0e0"></path><path d="M51.8,402.53a14.62,14.62,0,0,0-14,8c-.17.35-.33.79-.1,1.1a1.06,1.06,0,0,0,.93.27c2.76-.18,5.2-1.83,7.21-3.72s3.77-4.07,6-5.7" style="fill:#e0e0e0"></path><path d="M51.59,402.09a26,26,0,0,1-.26-14.54c.51-1.87,1.37-3.84,3.1-4.72a.62.62,0,0,1,.47-.09.61.61,0,0,1,.3.35,8.77,8.77,0,0,1,.74,4.17,26.39,26.39,0,0,1-.66,4.23c-.54,2.58-.83,5.35-2.25,7.58a16.56,16.56,0,0,0-.9,1.66c-.27.57-.27.77-.51,1.22" style="fill:#e0e0e0"></path><path d="M69.63,404.77a18.74,18.74,0,0,1,3.28-15.41c.24-.31.55-.64.94-.6.59.06.74.84.71,1.43a27.8,27.8,0,0,1-4.93,14.58" style="fill:#e0e0e0"></path><path d="M71.25,405.89a22.44,22.44,0,0,0,18.4-3.75,14.91,14.91,0,0,0-10-1.22,14.17,14.17,0,0,0-8.44,5" style="fill:#e0e0e0"></path><path d="M72.62,402.5a21.24,21.24,0,0,1,16.7-9.65,10.29,10.29,0,0,1-5.46,6,29.87,29.87,0,0,1-8,2.35c-1.06.21-2.53.43-3.22,1.27" style="fill:#e0e0e0"></path><path d="M70,386.08a47.86,47.86,0,0,0,2.13-9.78,16.28,16.28,0,0,0-1.94-9.68,21.31,21.31,0,0,0-.29,19.79" style="fill:#e0e0e0"></path><path d="M80.85,380.58c3.78-6.87,11.49-12.35,19.29-13.12-3,7.49-11.22,13.28-19.29,13.12" style="fill:#e0e0e0"></path><path d="M78.47,381.92c5.64.86,10.44,4.46,15.7,6.64a7,7,0,0,0,3.55.68,2.77,2.77,0,0,0,1.74-4.91,7.49,7.49,0,0,0-2.58-1.57,28.74,28.74,0,0,0-17.92-1" style="fill:#e0e0e0"></path><path d="M75.21,385.88c1.28.36,1.71,1,2.72,1.88a29.44,29.44,0,0,0,11.91,6.12c.45.11,1,.16,1.28-.25s-.06-.8-.31-1.12a16.43,16.43,0,0,0-7.19-4.88c-2.75-1-5.13-2.25-8.41-2" style="fill:#e0e0e0"></path><path d="M71.53,362a22.54,22.54,0,0,0,17.28,5.87,1.13,1.13,0,0,0,.78-.28c.44-.47-.08-1.2-.59-1.6-5.08-4-11.23-5.6-17.47-4" style="fill:#e0e0e0"></path><path d="M75.89,360.41a24.11,24.11,0,0,1,21.56-3.56,17,17,0,0,1-10.27,4.51,32.35,32.35,0,0,1-11.29-.95" style="fill:#e0e0e0"></path><path d="M74.16,349.44c-.5-5.07-.18-9.07-.53-14.17,0-.4-.11-.89-.49-1-.53-.2-1,.45-1.15,1a16.23,16.23,0,0,0,2.16,14.11" style="fill:#e0e0e0"></path><path d="M73.79,350a29.8,29.8,0,0,0,8.4-8.16c1.66-2.27,3.06-5,2.68-7.78a8.07,8.07,0,0,0-6.06,3,16.92,16.92,0,0,0-3.08,6.21c-.68,2.24-1.15,4.53-1.94,6.72" style="fill:#e0e0e0"></path><path d="M82.05,347.71a67.71,67.71,0,0,0,20.66-12.19c-2.47-1-5.29-.4-7.76.6a24.44,24.44,0,0,0-13,11.53" style="fill:#e0e0e0"></path><path d="M76.11,352.77a42,42,0,0,0,11.48.06,48.63,48.63,0,0,0,10.71-3.56,1.25,1.25,0,0,0,.73-.55.84.84,0,0,0-.26-.92,2.19,2.19,0,0,0-.91-.43,19.86,19.86,0,0,0-11.58.69,54.55,54.55,0,0,0-10.17,4.71" style="fill:#e0e0e0"></path><path d="M54.33,362.18a20.27,20.27,0,0,1-.19-16.8c1.59,2.41,1.78,5.48,1.49,8.35s-1.16,5.83-1.22,8.71" style="fill:#e0e0e0"></path><path d="M43.93,356.93a23.45,23.45,0,0,0-17.41,7.42,16.19,16.19,0,0,0,9.53-1.77,48.89,48.89,0,0,0,8.17-5.46" style="fill:#e0e0e0"></path><path d="M36.94,354.6c-3.18-.26-6.24-.66-9.3.28a11.14,11.14,0,0,0-7.08,6,16.78,16.78,0,0,0,8.71-1.65,49.53,49.53,0,0,0,7.67-4.64" style="fill:#e0e0e0"></path><path d="M47.29,354.7c-2.86-1.87-5.8-3.78-9.13-4.56s-7.19-.2-9.51,2.31c2.7,1.58,6,1.77,9.09,1.77s7,0,9.91,1" style="fill:#e0e0e0"></path><path d="M47.31,354.85c-4.89-4.8-6.75-13.42-4.78-20a30.54,30.54,0,0,1,4.78,20" style="fill:#e0e0e0"></path><path d="M60.75,341.25c.92-2.14,1.57-4.39,2.4-6.58a19,19,0,0,1,3.42-6.06,9,9,0,0,1,6.06-3.14,24.38,24.38,0,0,1-11.76,15.81" style="fill:#e0e0e0"></path><path d="M58.32,344.08C56.79,342,55,339.13,53,337.56a9,9,0,0,0-7.29-1.91,17,17,0,0,0,12.65,8.43" style="fill:#e0e0e0"></path><path d="M58.81,341.42a36.59,36.59,0,0,1-2.42-7.81,12.16,12.16,0,0,1,1.23-7.94c2.68,5.07,3.54,10.52,1.32,15.81" style="fill:#e0e0e0"></path><path d="M60.78,325.67c1.52-5,6.12-8.73,11.09-10.43a4.12,4.12,0,0,1,1.95-.3,1.68,1.68,0,0,1,1.43,1.2c.19.86-.52,1.62-1.19,2.19a37.74,37.74,0,0,1-13.28,7.34" style="fill:#e0e0e0"></path><path d="M60.83,321.56A36.06,36.06,0,0,1,62.28,312a12.15,12.15,0,0,1,6-7.3c.5,3.28-.94,6.53-2.69,9.35s-3.84,5.48-4.89,8.63" style="fill:#e0e0e0"></path><path d="M60.75,323.79c-1.25-3.67-1.38-8.32-3.58-11.52-1.53-2.23-4-3.75-5.31-6.11a9.28,9.28,0,0,0,.31,6.94,19.78,19.78,0,0,0,4.06,5.81c1.62,1.74,3,3,4.52,4.88" style="fill:#e0e0e0"></path><path d="M60.78,431.74c-.1,0-.19-24.45-.19-54.61s.06-54.62.16-54.62.18,24.45.19,54.62S60.87,431.74,60.78,431.74Z" style="fill:#e0e0e0"></path><path d="M82.15,358.49a6.33,6.33,0,0,1-.92.34l-2.53.86c-2.14.72-5.07,1.78-8.25,3.08s-6.12,2.45-7.81,3.91a5.76,5.76,0,0,0-1.57,2.08c-.24.58-.29.93-.32.92a.74.74,0,0,1,0-.26,4,4,0,0,1,.18-.71,5.58,5.58,0,0,1,1.53-2.21,13.89,13.89,0,0,1,3.39-2.11c1.36-.63,2.86-1.29,4.46-1.95,3.19-1.3,6.14-2.32,8.3-3,1.08-.34,2-.58,2.57-.75A5.24,5.24,0,0,1,82.15,358.49Z" style="fill:#e0e0e0"></path><path d="M89.15,341.28s-.08.11-.26.28l-.78.74L85.18,345l-9.75,8.68c-3.81,3.39-7.1,6.62-9.38,9.06-1.14,1.22-2,2.23-2.65,2.93l-.71.81c-.16.18-.25.28-.26.27a1.28,1.28,0,0,1,.21-.32c.15-.19.36-.49.66-.85.58-.73,1.45-1.77,2.57-3a124.88,124.88,0,0,1,9.32-9.16C79,350,82.49,347,85,344.77l3-2.58.83-.68A1.44,1.44,0,0,1,89.15,341.28Z" style="fill:#e0e0e0"></path><path d="M71.32,357.08c-.1,0,.7-1.88,1.49-4.2s1.17-4.28,1.27-4.26a14,14,0,0,1-.94,4.37A29.58,29.58,0,0,1,72,355.93,4.62,4.62,0,0,1,71.32,357.08Z" style="fill:#e0e0e0"></path><path d="M60.8,371.88a3.58,3.58,0,0,1-.59-.68l-1.5-1.92c-1.26-1.63-3-3.89-5-6.35s-3.76-4.68-5.06-6.28c-.61-.76-1.13-1.39-1.53-1.9a4.52,4.52,0,0,1-.53-.72,4.56,4.56,0,0,1,.63.64c.39.42,1,1,1.62,1.82,1.36,1.56,3.19,3.75,5.14,6.22s3.68,4.75,4.89,6.42c.61.83,1.09,1.51,1.41,2A4.58,4.58,0,0,1,60.8,371.88Z" style="fill:#e0e0e0"></path><path d="M56.11,365.87a8.79,8.79,0,0,1-2-3.68,10.49,10.49,0,0,1-.44-3.7h.15c-.07.28-.12.43-.15.43s0-.16,0-.45h.15a17.05,17.05,0,0,0,.63,3.6A28,28,0,0,0,56.11,365.87Z" style="fill:#e0e0e0"></path><path d="M50.06,358.26a6,6,0,0,0-1.37-.8,9.2,9.2,0,0,0-3.8-.3,23,23,0,0,0-3.83.62,11.65,11.65,0,0,1-1.58.38,5.34,5.34,0,0,1,1.51-.62,17.45,17.45,0,0,1,3.87-.73,8.33,8.33,0,0,1,3.93.42A2.35,2.35,0,0,1,50.06,358.26Z" style="fill:#e0e0e0"></path><path d="M48.63,356.42c0,.05-.8-.32-2.1-.77a21.86,21.86,0,0,0-5.24-1.08,22.18,22.18,0,0,0-5.34.27c-1.35.25-2.17.5-2.19.44a2.4,2.4,0,0,1,.56-.24,13.2,13.2,0,0,1,1.58-.44,18.63,18.63,0,0,1,10.72.82,12.83,12.83,0,0,1,1.5.68C48.46,356.28,48.64,356.39,48.63,356.42Z" style="fill:#e0e0e0"></path><path d="M60.75,348.62A87.19,87.19,0,0,1,58,337.89a42.66,42.66,0,0,1,1.53,5.32A42.36,42.36,0,0,1,60.75,348.62Z" style="fill:#e0e0e0"></path><path d="M60.85,348.62a26.58,26.58,0,0,0-1.7-3.19,14.32,14.32,0,0,0-2.5-2.58,2.45,2.45,0,0,1,1,.5,8,8,0,0,1,1.82,1.88A7.06,7.06,0,0,1,60.85,348.62Z" style="fill:#e0e0e0"></path><path d="M60.78,418.7s-.11-.58-.39-1.62a23,23,0,0,0-1.63-4.24,58.79,58.79,0,0,0-8.67-12.21c-1.94-2.21-3.82-4.3-5.41-6.3a43.83,43.83,0,0,1-3.87-5.57,27.61,27.61,0,0,1-2-4.14c-.18-.51-.31-.91-.38-1.19s-.12-.41-.1-.42.21.56.61,1.56a30.44,30.44,0,0,0,2,4.06,47.09,47.09,0,0,0,3.9,5.5c1.6,2,3.48,4.05,5.42,6.27A55.3,55.3,0,0,1,59,412.73,21,21,0,0,1,60.52,417a11.4,11.4,0,0,1,.22,1.23A2,2,0,0,1,60.78,418.7Z" style="fill:#e0e0e0"></path><path d="M80.09,396.89a7.43,7.43,0,0,1-1,.57,23.17,23.17,0,0,0-2.62,1.74A28.47,28.47,0,0,0,73,402.34c-1.21,1.28-2.45,2.76-3.73,4.35-2.54,3.19-4.92,6-6.34,8.27-.73,1.12-1.25,2.06-1.6,2.72a9.49,9.49,0,0,1-.55,1,1,1,0,0,1,.09-.28c.08-.19.18-.46.34-.8a24.78,24.78,0,0,1,1.51-2.79A90.51,90.51,0,0,1,69,406.47c1.27-1.59,2.53-3.08,3.77-4.36A27.49,27.49,0,0,1,76.3,399,18.22,18.22,0,0,1,79,397.34c.34-.17.61-.27.79-.35A.84.84,0,0,1,80.09,396.89Z" style="fill:#e0e0e0"></path><path d="M80.46,404a14.68,14.68,0,0,1-2.13.31,28.08,28.08,0,0,0-5.08,1,15.26,15.26,0,0,0-4.54,2.38c-1,.81-1.54,1.48-1.59,1.44a1.73,1.73,0,0,1,.32-.49,8.06,8.06,0,0,1,1.11-1.14,13.78,13.78,0,0,1,4.59-2.53A23.23,23.23,0,0,1,78.3,404,10.85,10.85,0,0,1,80.46,404Z" style="fill:#e0e0e0"></path><path d="M67.75,408.32c-.12-.06.85-1.53,1.6-3.51s.86-3.75,1-3.73a3.6,3.6,0,0,1,0,1.14,12.1,12.1,0,0,1-.62,2.71,14.21,14.21,0,0,1-1.24,2.48A3.59,3.59,0,0,1,67.75,408.32Z" style="fill:#e0e0e0"></path><path d="M86.34,377.9a2,2,0,0,1-.34.18l-1,.46a17.07,17.07,0,0,0-1.57.74c-.61.31-1.31.63-2,1.07l-1.16.67c-.41.23-.81.51-1.24.77-.86.53-1.72,1.17-2.64,1.82a50.66,50.66,0,0,0-5.51,4.85,49.63,49.63,0,0,0-4.66,5.68c-.63.95-1.24,1.83-1.73,2.71-.25.43-.52.84-.74,1.25s-.42.81-.62,1.19c-.41.75-.71,1.47-1,2.08s-.52,1.16-.69,1.6L61,404c-.1.24-.15.36-.17.35a2.1,2.1,0,0,1,.11-.37c.09-.28.21-.62.36-1.05s.36-1,.64-1.63.55-1.35,1-2.11c.19-.39.39-.79.61-1.21s.47-.83.72-1.27c.48-.89,1.09-1.79,1.71-2.74a43.53,43.53,0,0,1,10.25-10.61c.93-.65,1.8-1.29,2.68-1.8.43-.27.84-.54,1.25-.77l1.18-.64c.75-.43,1.47-.74,2.08-1s1.16-.52,1.61-.69l1-.4C86.21,377.93,86.34,377.88,86.34,377.9Z" style="fill:#e0e0e0"></path><path d="M71.06,388.14a2.49,2.49,0,0,1,.84-1.26,5.27,5.27,0,0,1,3.38-1.29,9.26,9.26,0,0,1,3.57.69,4.59,4.59,0,0,1,1.34.66,8.79,8.79,0,0,1-1.42-.42,10.61,10.61,0,0,0-3.47-.58,5.57,5.57,0,0,0-3.24,1.13A8.75,8.75,0,0,0,71.06,388.14Z" style="fill:#e0e0e0"></path><path d="M68.77,390.49a12.1,12.1,0,0,0,1-3.13,12.81,12.81,0,0,0-.21-3.26,2.09,2.09,0,0,1,.4.91,6.75,6.75,0,0,1,.17,2.4,6.57,6.57,0,0,1-.72,2.29C69.07,390.24,68.81,390.52,68.77,390.49Z" style="fill:#e0e0e0"></path><path d="M43.89,422.21c.52,9.34,3.34,18.85,7.67,28.46H70.4c4.13-9.52,6.75-19,7.22-28.46Z" style="fill:#e0e0e0"></path><path d="M74.56,437.33c0,.1-6.2.18-13.85.18s-13.85-.08-13.85-.18,6.2-.18,13.85-.18S74.56,437.23,74.56,437.33Z" style="fill:#fafafa"></path><path d="M74.14,440.71c0,.1-5.81.18-13,.18s-13-.08-13-.18,5.82-.17,13-.17S74.14,440.62,74.14,440.71Z" style="fill:#fafafa"></path><path d="M51.87,428.34a55.48,55.48,0,0,1,0,8.68,52.41,52.41,0,0,1,0-8.68Z" style="fill:#fafafa"></path><path d="M62,428.34a59.51,59.51,0,0,1,0,9,56.22,56.22,0,0,1,0-9Z" style="fill:#fafafa"></path><path d="M71.43,428.27a58.36,58.36,0,0,1,0,9.16,61.78,61.78,0,0,1,0-9.16Z" style="fill:#fafafa"></path><path d="M77,428.34c0,.1-7.28.18-16.25.18s-16.24-.08-16.24-.18,7.27-.17,16.24-.17S77,428.25,77,428.34Z" style="fill:#fafafa"></path><polygon points="176.69 61.41 122.62 452.49 261.98 452.49 198.51 61.41 176.69 61.41" style="fill:#fafafa"></polygon><polygon points="408.94 61.41 354.87 454.47 494.23 454.47 430.76 61.41 408.94 61.41" style="fill:#fafafa"></polygon><polygon points="656.14 61.41 606.17 449.48 734.96 449.48 676.3 61.41 656.14 61.41" style="fill:#fafafa"></polygon><path d="M705.41,17.59c0,.16-149,.28-332.77.28s-332.8-.12-332.8-.28,149-.28,332.8-.28S705.41,17.44,705.41,17.59Z" style="fill:#e0e0e0"></path><path d="M705.41,42.82c0,.16-149,.28-332.77.28S39.84,43,39.84,42.82s149-.28,332.8-.28S705.41,42.67,705.41,42.82Z" style="fill:#e0e0e0"></path><path d="M172.46,18.19a3.93,3.93,0,0,1-.51.47L170.41,20l-5.91,5C159.35,29.41,152,35.58,143.26,43l-.23.19-.24-.19L112.38,17.78h.53l-.22.17L80.94,43l-.25.19-.22-.2L60.33,24.61l-5.59-5.16-1.46-1.37a3.07,3.07,0,0,1-.47-.49,4.25,4.25,0,0,1,.55.44l1.52,1.32,5.73,5.08L81,42.67l-.46,0,31.67-25.08.23-.17.27-.22.26.22,30.34,25.26h-.47l21.44-17.8,6-4.95,1.61-1.3A3.5,3.5,0,0,1,172.46,18.19Z" style="fill:#e0e0e0"></path><path d="M290.93,18.19a3.93,3.93,0,0,1-.51.47L288.88,20l-5.91,5C277.82,29.41,270.5,35.58,261.73,43l-.24.19-.23-.19L230.85,17.78h.53l-.22.17L199.41,43l-.25.19-.22-.2L178.8,24.61l-5.59-5.16-1.46-1.37a3.07,3.07,0,0,1-.47-.49,4.25,4.25,0,0,1,.55.44l1.52,1.32,5.73,5.08,20.34,18.24-.46,0,31.67-25.08.23-.17.27-.22.26.22,30.33,25.26h-.46l21.44-17.8,6-4.95,1.61-1.3A3.5,3.5,0,0,1,290.93,18.19Z" style="fill:#e0e0e0"></path><path d="M409.4,18.19a3.93,3.93,0,0,1-.51.47L407.35,20l-5.91,5C396.29,29.41,389,35.58,380.2,43l-.24.19-.23-.19L349.32,17.78h.53l-.22.17L317.88,43l-.25.19-.22-.2L297.27,24.61l-5.6-5.16c-.61-.58-1.09-1-1.45-1.37a2.56,2.56,0,0,1-.47-.49,4.25,4.25,0,0,1,.55.44l1.52,1.32,5.73,5.08,20.34,18.24-.47,0L349.1,17.57l.23-.17.27-.22.26.22,30.33,25.26h-.46l21.44-17.8,6-4.95,1.61-1.3A3.5,3.5,0,0,1,409.4,18.19Z" style="fill:#e0e0e0"></path><path d="M530.55,18.19a3.93,3.93,0,0,1-.51.47L528.51,20l-5.91,5L501.35,43l-.23.19-.24-.19L470.47,17.78H471l-.22.17L439,43l-.24.19-.23-.2L418.42,24.61l-5.59-5.16-1.46-1.37a3.83,3.83,0,0,1-.47-.49,4.25,4.25,0,0,1,.55.44L413,19.35l5.73,5.08L439,42.67l-.46,0,31.68-25.08.22-.17.27-.22.26.22,30.34,25.26h-.47l21.44-17.8,6-4.95,1.61-1.3A4.09,4.09,0,0,1,530.55,18.19Z" style="fill:#e0e0e0"></path><path d="M651.54,18.19a3.93,3.93,0,0,1-.51.47L649.5,20l-5.91,5L622.34,43l-.23.19-.24-.19L591.46,17.78H592l-.22.17L560,43l-.24.19-.23-.2L539.41,24.61l-5.59-5.16-1.46-1.37a3.83,3.83,0,0,1-.47-.49,4.25,4.25,0,0,1,.55.44L534,19.35l5.73,5.08L560,42.67l-.46,0,31.68-25.08.22-.17.27-.22.26.22,30.34,25.26h-.47l21.44-17.8,6-4.95,1.61-1.3A4.09,4.09,0,0,1,651.54,18.19Z" style="fill:#e0e0e0"></path><path d="M710.16,17.59a3.51,3.51,0,0,1-.58.54l-1.76,1.46-6.55,5.31L679.43,42.27l-.95.75-.28.22-.26-.24L658.26,25.08l-5.87-5.45-1.57-1.49a4.33,4.33,0,0,1-.51-.55,3.47,3.47,0,0,1,.62.47l1.67,1.43,6,5.33L678.5,42.64H678l.94-.75c8.56-6.72,16.31-12.79,22-17.26l6.73-5.18,1.85-1.39A4.62,4.62,0,0,1,710.16,17.59Z" style="fill:#e0e0e0"></path><polygon points="198.22 61.41 176.4 61.41 180.15 42.82 194.39 42.82 198.22 61.41" style="fill:#e0e0e0"></polygon><polygon points="328.81 61.41 306.99 61.41 310.74 42.82 324.99 42.82 328.81 61.41" style="fill:#e0e0e0"></polygon><polygon points="82.61 61.41 60.8 61.41 64.55 42.82 78.79 42.82 82.61 61.41" style="fill:#e0e0e0"></polygon><polygon points="430.45 61.83 408.63 61.83 412.39 43.23 426.63 43.23 430.45 61.83" style="fill:#e0e0e0"></polygon><polygon points="565.8 61.41 543.98 61.41 547.73 42.82 561.98 42.82 565.8 61.41" style="fill:#e0e0e0"></polygon><polygon points="679.58 61.41 657.77 61.41 661.52 42.82 675.76 42.82 679.58 61.41" style="fill:#e0e0e0"></polygon><rect x="25.93" y="85.37" width="250.62" height="203.21" style="fill:#f5f5f5"></rect><path d="M276.55,288.58c0-1.82-.09-80.73-.22-203.21l.22.21L26,85.63h0l.26-.26c0,73.46,0,142.83,0,203.21l-.23-.24,250.62.24-250.62.23H25.7v-.23c0-60.38,0-129.75,0-203.21v-.26H26l250.6,0h.22v.22C276.64,207.85,276.55,286.76,276.55,288.58Z" style="fill:#e0e0e0"></path><path d="M245,143.25a23.2,23.2,0,0,1-18.89-36.67,23.2,23.2,0,1,0,32.36,32.36A23.1,23.1,0,0,1,245,143.25Z" style="fill:#fafafa"></path><rect x="180.99" y="169.67" width="46.69" height="118.91" style="fill:#e0e0e0"></rect><rect x="188.49" y="176.62" width="7.37" height="8.34" style="fill:#ebebeb"></rect><rect x="200.65" y="176.62" width="7.37" height="8.34" style="fill:#ebebeb"></rect><rect x="212.8" y="176.62" width="7.37" height="8.34" style="fill:#fafafa"></rect><rect x="188.49" y="189.18" width="7.37" height="8.34" style="fill:#ebebeb"></rect><rect x="200.65" y="189.18" width="7.37" height="8.34" style="fill:#fafafa"></rect><rect x="212.8" y="189.18" width="7.37" height="8.34" style="fill:#ebebeb"></rect><rect x="188.49" y="201.74" width="7.37" height="8.34" style="fill:#fafafa"></rect><rect x="200.65" y="201.74" width="7.37" height="8.34" style="fill:#ebebeb"></rect><rect x="212.8" y="201.74" width="7.37" height="8.34" style="fill:#fafafa"></rect><rect x="188.49" y="214.3" width="7.37" height="8.34" style="fill:#ebebeb"></rect><rect x="200.65" y="214.3" width="7.37" height="8.34" style="fill:#ebebeb"></rect><rect x="212.8" y="214.3" width="7.37" height="8.34" style="fill:#ebebeb"></rect><rect x="188.49" y="226.86" width="7.37" height="8.34" style="fill:#fafafa"></rect><rect x="200.65" y="226.86" width="7.37" height="8.34" style="fill:#ebebeb"></rect><rect x="212.8" y="226.86" width="7.37" height="8.34" style="fill:#ebebeb"></rect><rect x="188.49" y="239.42" width="7.37" height="8.34" style="fill:#ebebeb"></rect><rect x="200.65" y="239.42" width="7.37" height="8.34" style="fill:#fafafa"></rect><rect x="212.8" y="239.42" width="7.37" height="8.34" style="fill:#fafafa"></rect><rect x="188.49" y="251.99" width="7.37" height="8.34" style="fill:#ebebeb"></rect><rect x="200.65" y="251.99" width="7.37" height="8.34" style="fill:#ebebeb"></rect><rect x="212.8" y="251.99" width="7.37" height="8.34" style="fill:#ebebeb"></rect><rect x="188.49" y="264.55" width="7.37" height="8.34" style="fill:#fafafa"></rect><rect x="200.65" y="264.55" width="7.37" height="8.34" style="fill:#ebebeb"></rect><rect x="212.8" y="264.55" width="7.37" height="8.34" style="fill:#ebebeb"></rect><rect x="188.49" y="277.11" width="7.37" height="8.34" style="fill:#ebebeb"></rect><rect x="200.65" y="277.11" width="7.37" height="8.34" style="fill:#ebebeb"></rect><rect x="212.8" y="277.11" width="7.37" height="8.34" style="fill:#ebebeb"></rect><rect x="54.13" y="169.67" width="46.69" height="118.91" style="fill:#ebebeb"></rect><rect x="61.64" y="176.62" width="7.37" height="8.34" style="fill:#e0e0e0"></rect><rect x="73.79" y="176.62" width="7.37" height="8.34" style="fill:#fafafa"></rect><rect x="85.95" y="177.19" width="7.37" height="8.34" style="fill:#e0e0e0"></rect><rect x="61.64" y="189.18" width="7.37" height="8.34" style="fill:#e0e0e0"></rect><rect x="73.79" y="189.76" width="7.37" height="8.34" style="fill:#e0e0e0"></rect><rect x="85.95" y="189.18" width="7.37" height="8.34" style="fill:#fafafa"></rect><rect x="61.64" y="201.74" width="7.37" height="8.34" style="fill:#fafafa"></rect><rect x="73.79" y="200.92" width="7.37" height="8.34" style="fill:#e0e0e0"></rect><rect x="85.95" y="200.92" width="7.37" height="8.34" style="fill:#e0e0e0"></rect><rect x="61.64" y="213.48" width="7.37" height="8.34" style="fill:#e0e0e0"></rect><rect x="73.79" y="214.3" width="7.37" height="8.34" style="fill:#fafafa"></rect><rect x="85.95" y="213.48" width="7.37" height="8.34" style="fill:#e0e0e0"></rect><rect x="61.64" y="226.05" width="7.37" height="8.34" style="fill:#e0e0e0"></rect><rect x="73.79" y="226.05" width="7.37" height="8.34" style="fill:#e0e0e0"></rect><rect x="85.95" y="226.86" width="7.37" height="8.34" style="fill:#fafafa"></rect><rect x="61.64" y="239.42" width="7.37" height="8.34" style="fill:#fafafa"></rect><rect x="73.79" y="238.61" width="7.37" height="8.34" style="fill:#e0e0e0"></rect><rect x="85.95" y="239.42" width="7.37" height="8.34" style="fill:#fafafa"></rect><rect x="61.64" y="251.17" width="7.37" height="8.34" style="fill:#e0e0e0"></rect><rect x="73.79" y="251.17" width="7.37" height="8.34" style="fill:#e0e0e0"></rect><rect x="85.95" y="251.99" width="7.37" height="8.34" style="fill:#fafafa"></rect><rect x="61.64" y="263.73" width="7.37" height="8.34" style="fill:#e0e0e0"></rect><rect x="73.79" y="264.55" width="7.37" height="8.34" style="fill:#fafafa"></rect><polygon points="93.32 272.88 85.94 272.07 85.94 263.73 93.32 264.55 93.32 272.88" style="fill:#e0e0e0"></polygon><rect x="61.64" y="277.11" width="7.37" height="8.34" style="fill:#fafafa"></rect><rect x="73.79" y="277.11" width="7.37" height="7.52" style="fill:#e0e0e0"></rect><rect x="85.95" y="277.11" width="7.37" height="8.34" style="fill:#fafafa"></rect><rect x="131.59" y="205.91" width="46.69" height="82.67" style="fill:#e0e0e0"></rect><rect x="139.1" y="212.79" width="7.37" height="8.34" style="fill:#fafafa"></rect><rect x="151.25" y="212.79" width="7.37" height="8.34" style="fill:#ebebeb"></rect><rect x="163.41" y="212.79" width="7.37" height="8.34" style="fill:#fafafa"></rect><rect x="139.1" y="225.35" width="7.37" height="8.34" style="fill:#ebebeb"></rect><rect x="151.25" y="225.35" width="7.37" height="8.34" style="fill:#fafafa"></rect><rect x="163.41" y="225.35" width="7.37" height="8.34" style="fill:#ebebeb"></rect><rect x="139.1" y="237.91" width="7.37" height="8.34" style="fill:#ebebeb"></rect><rect x="151.25" y="237.91" width="7.37" height="8.34" style="fill:#fafafa"></rect><rect x="163.41" y="237.91" width="7.37" height="8.34" style="fill:#fafafa"></rect><rect x="139.1" y="250.47" width="7.37" height="8.34" style="fill:#fafafa"></rect><rect x="151.25" y="250.47" width="7.37" height="8.34" style="fill:#ebebeb"></rect><rect x="163.41" y="250.47" width="7.37" height="8.34" style="fill:#fafafa"></rect><rect x="139.1" y="263.03" width="7.37" height="8.34" style="fill:#ebebeb"></rect><rect x="151.25" y="263.03" width="7.37" height="8.34" style="fill:#fafafa"></rect><rect x="163.41" y="263.03" width="7.37" height="8.34" style="fill:#ebebeb"></rect><rect x="139.1" y="275.59" width="7.37" height="8.34" style="fill:#ebebeb"></rect><rect x="151.25" y="275.59" width="7.37" height="8.34" style="fill:#ebebeb"></rect><rect x="163.41" y="275.59" width="7.37" height="8.34" style="fill:#ebebeb"></rect><rect x="26.45" y="205.91" width="46.69" height="82.67" style="fill:#e0e0e0"></rect><rect x="33.96" y="212.79" width="7.37" height="8.34" style="fill:#fafafa"></rect><rect x="46.11" y="212.79" width="7.37" height="8.34" style="fill:#ebebeb"></rect><rect x="58.27" y="212.79" width="7.37" height="8.34" style="fill:#fafafa"></rect><rect x="33.96" y="225.35" width="7.37" height="8.34" style="fill:#ebebeb"></rect><rect x="46.11" y="225.35" width="7.37" height="8.34" style="fill:#fafafa"></rect><rect x="58.27" y="225.35" width="7.37" height="8.34" style="fill:#ebebeb"></rect><rect x="33.96" y="237.91" width="7.37" height="8.34" style="fill:#ebebeb"></rect><rect x="46.11" y="237.91" width="7.37" height="8.34" style="fill:#fafafa"></rect><rect x="58.27" y="237.91" width="7.37" height="8.34" style="fill:#fafafa"></rect><rect x="33.96" y="250.47" width="7.37" height="8.34" style="fill:#fafafa"></rect><rect x="46.11" y="250.47" width="7.37" height="8.34" style="fill:#ebebeb"></rect><rect x="58.27" y="250.47" width="7.37" height="8.34" style="fill:#fafafa"></rect><rect x="33.96" y="263.03" width="7.37" height="8.34" style="fill:#ebebeb"></rect><rect x="46.11" y="263.03" width="7.37" height="8.34" style="fill:#fafafa"></rect><rect x="58.27" y="263.03" width="7.37" height="8.34" style="fill:#ebebeb"></rect><rect x="33.96" y="275.59" width="7.37" height="8.34" style="fill:#ebebeb"></rect><rect x="46.11" y="275.59" width="7.37" height="8.34" style="fill:#ebebeb"></rect><rect x="58.27" y="275.59" width="7.37" height="8.34" style="fill:#ebebeb"></rect><rect x="230.41" y="205.91" width="46.69" height="82.67" style="fill:#ebebeb"></rect><rect x="237.92" y="212.79" width="7.37" height="8.34" style="fill:#e0e0e0"></rect><rect x="250.07" y="212.79" width="7.37" height="8.34" style="fill:#fafafa"></rect><rect x="262.23" y="212.79" width="7.37" height="8.34" style="fill:#e0e0e0"></rect><rect x="237.92" y="225.35" width="7.37" height="8.34" style="fill:#fafafa"></rect><rect x="250.07" y="225.35" width="7.37" height="8.34" style="fill:#fafafa"></rect><rect x="262.23" y="225.35" width="7.37" height="8.34" style="fill:#e0e0e0"></rect><rect x="237.92" y="237.91" width="7.37" height="8.34" style="fill:#e0e0e0"></rect><rect x="250.07" y="237.91" width="7.37" height="8.34" style="fill:#e0e0e0"></rect><rect x="262.23" y="237.91" width="7.37" height="8.34" style="fill:#e0e0e0"></rect><rect x="237.92" y="250.47" width="7.37" height="8.34" style="fill:#e0e0e0"></rect><rect x="250.07" y="250.47" width="7.37" height="8.34" style="fill:#fafafa"></rect><rect x="262.23" y="250.47" width="7.37" height="8.34" style="fill:#e0e0e0"></rect><rect x="237.92" y="263.03" width="7.37" height="8.34" style="fill:#e0e0e0"></rect><rect x="250.07" y="263.03" width="7.37" height="8.34" style="fill:#e0e0e0"></rect><rect x="262.23" y="263.03" width="7.37" height="8.34" style="fill:#fafafa"></rect><rect x="237.92" y="275.59" width="7.37" height="8.34" style="fill:#e0e0e0"></rect><rect x="250.07" y="275.59" width="7.37" height="8.34" style="fill:#e0e0e0"></rect><rect x="262.23" y="275.59" width="7.37" height="8.34" style="fill:#e0e0e0"></rect><path d="M205.38,141.83a15.27,15.27,0,0,0-1.82-3.77,5.18,5.18,0,0,0-3.42-2.22,3.18,3.18,0,0,0-3.38,1.9,19.8,19.8,0,0,0-2.11-8.63c-1.5-2.59-4.28-4.63-7.27-4.45-2.81.18-5.22,2.27-6.56,4.75a25.08,25.08,0,0,0-2.24,8.11c-1.07-1.31-3.32-.9-4.43.37a8.73,8.73,0,0,0-1.63,4.72h33.55Z" style="fill:#ebebeb"></path><path d="M94.89,143.17a15.27,15.27,0,0,0-1.82-3.77,5.19,5.19,0,0,0-3.42-2.23,3.17,3.17,0,0,0-3.38,1.91,19.81,19.81,0,0,0-2.11-8.64c-1.5-2.59-4.28-4.63-7.27-4.44-2.81.17-5.22,2.26-6.56,4.74a25.08,25.08,0,0,0-2.24,8.11c-1.07-1.3-3.32-.89-4.43.38A8.79,8.79,0,0,0,62,143.94H95.58Z" style="fill:#ebebeb"></path><rect x="315.94" y="86.54" width="250.62" height="203.21" style="fill:#f5f5f5"></rect><path d="M566.56,289.75c0-1.81-.08-80.73-.21-203.21l.21.22L316,86.8h0l.26-.26c0,73.46,0,142.84,0,203.21l-.23-.23,250.62.23L315.94,290h-.23v-.23c0-60.37,0-129.75,0-203.21v-.26H316l250.6,0h.22v.21C566.65,209,566.56,287.94,566.56,289.75Z" style="fill:#e0e0e0"></path><rect x="471" y="170.84" width="46.69" height="118.91" style="fill:#e0e0e0"></rect><rect x="478.5" y="177.79" width="7.37" height="8.34" style="fill:#ebebeb"></rect><rect x="490.66" y="177.79" width="7.37" height="8.34" style="fill:#ebebeb"></rect><rect x="502.81" y="177.79" width="7.37" height="8.34" style="fill:#fafafa"></rect><rect x="478.5" y="190.35" width="7.37" height="8.34" style="fill:#ebebeb"></rect><rect x="490.66" y="190.35" width="7.37" height="8.34" style="fill:#fafafa"></rect><rect x="502.81" y="190.35" width="7.37" height="8.34" style="fill:#ebebeb"></rect><rect x="478.5" y="202.92" width="7.37" height="8.34" style="fill:#fafafa"></rect><rect x="490.66" y="202.92" width="7.37" height="8.34" style="fill:#ebebeb"></rect><rect x="502.81" y="202.92" width="7.37" height="8.34" style="fill:#fafafa"></rect><rect x="478.5" y="215.48" width="7.37" height="8.34" style="fill:#ebebeb"></rect><rect x="490.66" y="215.48" width="7.37" height="8.34" style="fill:#ebebeb"></rect><rect x="502.81" y="215.48" width="7.37" height="8.34" style="fill:#ebebeb"></rect><rect x="478.5" y="228.04" width="7.37" height="8.34" style="fill:#fafafa"></rect><rect x="490.66" y="228.04" width="7.37" height="8.34" style="fill:#ebebeb"></rect><rect x="502.81" y="228.04" width="7.37" height="8.34" style="fill:#ebebeb"></rect><rect x="478.5" y="240.6" width="7.37" height="8.34" style="fill:#ebebeb"></rect><rect x="490.66" y="240.6" width="7.37" height="8.34" style="fill:#fafafa"></rect><rect x="502.81" y="240.6" width="7.37" height="8.34" style="fill:#fafafa"></rect><rect x="478.5" y="253.16" width="7.37" height="8.34" style="fill:#ebebeb"></rect><rect x="490.66" y="253.16" width="7.37" height="8.34" style="fill:#ebebeb"></rect><rect x="502.81" y="253.16" width="7.37" height="8.34" style="fill:#ebebeb"></rect><rect x="478.5" y="265.72" width="7.37" height="8.34" style="fill:#fafafa"></rect><rect x="490.66" y="265.72" width="7.37" height="8.34" style="fill:#ebebeb"></rect><rect x="502.81" y="265.72" width="7.37" height="8.34" style="fill:#ebebeb"></rect><rect x="478.5" y="278.28" width="7.37" height="8.34" style="fill:#ebebeb"></rect><rect x="490.66" y="278.28" width="7.37" height="8.34" style="fill:#ebebeb"></rect><rect x="502.81" y="278.28" width="7.37" height="8.34" style="fill:#ebebeb"></rect><rect x="316.95" y="170.84" width="46.69" height="118.91" style="fill:#e0e0e0"></rect><rect x="324.45" y="177.79" width="7.37" height="8.34" style="fill:#ebebeb"></rect><rect x="336.61" y="177.79" width="7.37" height="8.34" style="fill:#ebebeb"></rect><rect x="348.76" y="177.79" width="7.37" height="8.34" style="fill:#fafafa"></rect><rect x="324.45" y="190.35" width="7.37" height="8.34" style="fill:#ebebeb"></rect><rect x="336.61" y="190.35" width="7.37" height="8.34" style="fill:#fafafa"></rect><rect x="348.76" y="190.35" width="7.37" height="8.34" style="fill:#ebebeb"></rect><rect x="324.45" y="202.92" width="7.37" height="8.34" style="fill:#fafafa"></rect><rect x="336.61" y="202.92" width="7.37" height="8.34" style="fill:#ebebeb"></rect><rect x="348.76" y="202.92" width="7.37" height="8.34" style="fill:#fafafa"></rect><rect x="324.45" y="215.48" width="7.37" height="8.34" style="fill:#ebebeb"></rect><rect x="336.61" y="215.48" width="7.37" height="8.34" style="fill:#ebebeb"></rect><rect x="348.76" y="215.48" width="7.37" height="8.34" style="fill:#ebebeb"></rect><rect x="324.45" y="228.04" width="7.37" height="8.34" style="fill:#fafafa"></rect><rect x="336.61" y="228.04" width="7.37" height="8.34" style="fill:#ebebeb"></rect><rect x="348.76" y="228.04" width="7.37" height="8.34" style="fill:#ebebeb"></rect><rect x="324.45" y="240.6" width="7.37" height="8.34" style="fill:#ebebeb"></rect><rect x="336.61" y="240.6" width="7.37" height="8.34" style="fill:#fafafa"></rect><rect x="348.76" y="240.6" width="7.37" height="8.34" style="fill:#fafafa"></rect><rect x="324.45" y="253.16" width="7.37" height="8.34" style="fill:#ebebeb"></rect><rect x="336.61" y="253.16" width="7.37" height="8.34" style="fill:#ebebeb"></rect><rect x="348.76" y="253.16" width="7.37" height="8.34" style="fill:#ebebeb"></rect><rect x="324.45" y="265.72" width="7.37" height="8.34" style="fill:#fafafa"></rect><rect x="336.61" y="265.72" width="7.37" height="8.34" style="fill:#ebebeb"></rect><rect x="348.76" y="265.72" width="7.37" height="8.34" style="fill:#ebebeb"></rect><rect x="324.45" y="278.28" width="7.37" height="8.34" style="fill:#ebebeb"></rect><rect x="336.61" y="278.28" width="7.37" height="8.34" style="fill:#ebebeb"></rect><rect x="348.76" y="278.28" width="7.37" height="8.34" style="fill:#ebebeb"></rect><rect x="421.61" y="207.08" width="46.69" height="82.67" style="fill:#e0e0e0"></rect><rect x="429.11" y="213.96" width="7.37" height="8.34" style="fill:#fafafa"></rect><rect x="441.27" y="213.96" width="7.37" height="8.34" style="fill:#ebebeb"></rect><rect x="453.42" y="213.96" width="7.37" height="8.34" style="fill:#fafafa"></rect><rect x="429.11" y="226.52" width="7.37" height="8.34" style="fill:#ebebeb"></rect><rect x="441.27" y="226.52" width="7.37" height="8.34" style="fill:#fafafa"></rect><rect x="453.42" y="226.52" width="7.37" height="8.34" style="fill:#ebebeb"></rect><rect x="429.11" y="239.09" width="7.37" height="8.34" style="fill:#ebebeb"></rect><rect x="441.27" y="239.09" width="7.37" height="8.34" style="fill:#fafafa"></rect><rect x="453.42" y="239.09" width="7.37" height="8.34" style="fill:#fafafa"></rect><rect x="429.11" y="251.65" width="7.37" height="8.34" style="fill:#fafafa"></rect><rect x="441.27" y="251.65" width="7.37" height="8.34" style="fill:#ebebeb"></rect><rect x="453.42" y="251.65" width="7.37" height="8.34" style="fill:#fafafa"></rect><rect x="429.11" y="264.21" width="7.37" height="8.34" style="fill:#ebebeb"></rect><rect x="441.27" y="264.21" width="7.37" height="8.34" style="fill:#fafafa"></rect><rect x="453.42" y="264.21" width="7.37" height="8.34" style="fill:#ebebeb"></rect><rect x="429.11" y="276.77" width="7.37" height="8.34" style="fill:#ebebeb"></rect><rect x="441.27" y="276.77" width="7.37" height="8.34" style="fill:#ebebeb"></rect><rect x="453.42" y="276.77" width="7.37" height="8.34" style="fill:#ebebeb"></rect><rect x="371.03" y="224.97" width="36.59" height="64.78" style="fill:#e0e0e0"></rect><rect x="376.91" y="230.36" width="5.78" height="6.53" style="fill:#fafafa"></rect><rect x="386.44" y="230.36" width="5.78" height="6.53" style="fill:#ebebeb"></rect><rect x="395.96" y="230.36" width="5.78" height="6.53" style="fill:#fafafa"></rect><rect x="376.91" y="240.2" width="5.78" height="6.53" style="fill:#ebebeb"></rect><rect x="386.44" y="240.2" width="5.78" height="6.53" style="fill:#fafafa"></rect><rect x="395.96" y="240.2" width="5.78" height="6.53" style="fill:#ebebeb"></rect><rect x="376.91" y="250.05" width="5.78" height="6.53" style="fill:#ebebeb"></rect><rect x="386.44" y="250.05" width="5.78" height="6.53" style="fill:#fafafa"></rect><rect x="395.96" y="250.05" width="5.78" height="6.53" style="fill:#fafafa"></rect><rect x="376.91" y="259.89" width="5.78" height="6.53" style="fill:#fafafa"></rect><rect x="386.44" y="259.89" width="5.78" height="6.53" style="fill:#ebebeb"></rect><rect x="395.96" y="259.89" width="5.78" height="6.53" style="fill:#fafafa"></rect><rect x="376.91" y="269.74" width="5.78" height="6.53" style="fill:#ebebeb"></rect><rect x="386.44" y="269.74" width="5.78" height="6.53" style="fill:#fafafa"></rect><rect x="395.96" y="269.74" width="5.78" height="6.53" style="fill:#ebebeb"></rect><rect x="376.91" y="279.58" width="5.78" height="6.53" style="fill:#ebebeb"></rect><rect x="386.44" y="279.58" width="5.78" height="6.53" style="fill:#ebebeb"></rect><rect x="395.96" y="279.58" width="5.78" height="6.53" style="fill:#ebebeb"></rect><rect x="520.42" y="207.08" width="46.69" height="82.67" style="fill:#ebebeb"></rect><rect x="527.93" y="213.96" width="7.37" height="8.34" style="fill:#e0e0e0"></rect><rect x="540.08" y="213.96" width="7.37" height="8.34" style="fill:#fafafa"></rect><rect x="552.24" y="213.96" width="7.37" height="8.34" style="fill:#e0e0e0"></rect><rect x="527.93" y="226.52" width="7.37" height="8.34" style="fill:#fafafa"></rect><rect x="540.08" y="226.52" width="7.37" height="8.34" style="fill:#fafafa"></rect><rect x="552.24" y="226.52" width="7.37" height="8.34" style="fill:#e0e0e0"></rect><rect x="527.93" y="239.09" width="7.37" height="8.34" style="fill:#e0e0e0"></rect><rect x="540.08" y="239.09" width="7.37" height="8.34" style="fill:#e0e0e0"></rect><rect x="552.24" y="239.09" width="7.37" height="8.34" style="fill:#e0e0e0"></rect><rect x="527.93" y="251.65" width="7.37" height="8.34" style="fill:#e0e0e0"></rect><rect x="540.08" y="251.65" width="7.37" height="8.34" style="fill:#fafafa"></rect><rect x="552.24" y="251.65" width="7.37" height="8.34" style="fill:#e0e0e0"></rect><rect x="527.93" y="264.21" width="7.37" height="8.34" style="fill:#e0e0e0"></rect><rect x="540.08" y="264.21" width="7.37" height="8.34" style="fill:#e0e0e0"></rect><rect x="552.24" y="264.21" width="7.37" height="8.34" style="fill:#fafafa"></rect><rect x="527.93" y="276.77" width="7.37" height="8.34" style="fill:#e0e0e0"></rect><rect x="540.08" y="276.77" width="7.37" height="8.34" style="fill:#e0e0e0"></rect><rect x="552.24" y="276.77" width="7.37" height="8.34" style="fill:#e0e0e0"></rect><path d="M440.71,179a26.18,26.18,0,0,0-3.08-6.39,8.83,8.83,0,0,0-5.8-3.77,5.37,5.37,0,0,0-5.72,3.23c-.34-5.06-1.06-10.25-3.59-14.64s-7.25-7.84-12.31-7.53c-4.77.3-8.85,3.84-11.12,8s-3,9-3.79,13.75c-1.81-2.22-5.63-1.52-7.52.63s-2.36,5.16-2.76,8h56.86Z" style="fill:#ebebeb"></path><path d="M523.2,142.84a21.8,21.8,0,0,0-2.61-5.41,7.4,7.4,0,0,0-4.91-3.2,4.57,4.57,0,0,0-4.85,2.73c-.29-4.28-.9-8.68-3-12.4s-6.15-6.64-10.43-6.38c-4.05.25-7.51,3.25-9.43,6.81s-2.58,7.66-3.21,11.65c-1.53-1.88-4.77-1.28-6.37.54s-2,4.37-2.34,6.77h48.18Z" style="fill:#ebebeb"></path><path d="M391.37,137a15.27,15.27,0,0,0-1.82-3.77,5.19,5.19,0,0,0-3.42-2.23,3.17,3.17,0,0,0-3.38,1.91,19.68,19.68,0,0,0-2.12-8.64c-1.49-2.59-4.28-4.62-7.26-4.44-2.81.17-5.22,2.26-6.56,4.74a25.08,25.08,0,0,0-2.24,8.11c-1.07-1.3-3.32-.89-4.43.38a8.79,8.79,0,0,0-1.64,4.71h33.56Z" style="fill:#ebebeb"></path><rect x="605.55" y="86.54" width="105.67" height="203.21" style="fill:#f5f5f5"></rect><path d="M711.22,289.75s0-.34,0-1,0-1.63,0-2.9c0-2.55,0-6.32,0-11.21,0-9.79,0-24.06-.07-42,0-35.94-.07-86.71-.12-146.06l.25.25H605.55l.26-.26c0,78.21,0,149.62-.06,203.21l-.2-.19,77.19.1,21.09,0,5.5,0,1.89,0-1.85,0-5.47,0-21,0-77.31.11h-.19v-.2c0-53.59,0-125-.07-203.21v-.26h.28l105.65,0h.24v.24c-.05,59.41-.09,110.24-.12,146.23,0,18-.05,32.21-.06,42,0,4.87,0,8.63,0,11.17,0,1.26,0,2.22,0,2.87S711.22,289.75,711.22,289.75Z" style="fill:#e0e0e0"></path><path d="M697.24,186.8a25.83,25.83,0,0,0-3.08-6.39,8.82,8.82,0,0,0-5.8-3.77,5.39,5.39,0,0,0-5.73,3.22c-.33-5.05-1-10.24-3.58-14.63s-7.26-7.84-12.31-7.53c-4.77.29-8.86,3.83-11.13,8s-3,9-3.79,13.75c-1.81-2.22-5.62-1.52-7.51.63s-2.36,5.16-2.77,8h56.87Z" style="fill:#ebebeb"></path><rect x="638.37" y="190.35" width="7.37" height="8.34" style="fill:#ebebeb"></rect><rect x="606.56" y="170.84" width="46.69" height="118.91" style="fill:#e0e0e0"></rect><rect x="614.06" y="177.79" width="7.37" height="8.34" style="fill:#ebebeb"></rect><rect x="626.22" y="177.79" width="7.37" height="8.34" style="fill:#ebebeb"></rect><rect x="638.37" y="177.79" width="7.37" height="8.34" style="fill:#fafafa"></rect><rect x="614.06" y="190.35" width="7.37" height="8.34" style="fill:#ebebeb"></rect><rect x="626.22" y="190.35" width="7.37" height="8.34" style="fill:#fafafa"></rect><rect x="614.06" y="202.92" width="7.37" height="8.34" style="fill:#fafafa"></rect><rect x="626.22" y="202.92" width="7.37" height="8.34" style="fill:#ebebeb"></rect><rect x="638.37" y="202.92" width="7.37" height="8.34" style="fill:#fafafa"></rect><rect x="614.06" y="215.48" width="7.37" height="8.34" style="fill:#ebebeb"></rect><rect x="626.22" y="215.48" width="7.37" height="8.34" style="fill:#ebebeb"></rect><rect x="638.37" y="215.48" width="7.37" height="8.34" style="fill:#ebebeb"></rect><rect x="614.06" y="228.04" width="7.37" height="8.34" style="fill:#fafafa"></rect><rect x="626.22" y="228.04" width="7.37" height="8.34" style="fill:#ebebeb"></rect><rect x="638.37" y="228.04" width="7.37" height="8.34" style="fill:#ebebeb"></rect><rect x="614.06" y="240.6" width="7.37" height="8.34" style="fill:#ebebeb"></rect><rect x="626.22" y="240.6" width="7.37" height="8.34" style="fill:#fafafa"></rect><rect x="638.37" y="240.6" width="7.37" height="8.34" style="fill:#fafafa"></rect><rect x="614.06" y="253.16" width="7.37" height="8.34" style="fill:#ebebeb"></rect><rect x="626.22" y="253.16" width="7.37" height="8.34" style="fill:#ebebeb"></rect><rect x="638.37" y="253.16" width="7.37" height="8.34" style="fill:#ebebeb"></rect><rect x="614.06" y="265.72" width="7.37" height="8.34" style="fill:#fafafa"></rect><rect x="626.22" y="265.72" width="7.37" height="8.34" style="fill:#ebebeb"></rect><rect x="638.37" y="265.72" width="7.37" height="8.34" style="fill:#ebebeb"></rect><rect x="614.06" y="278.28" width="7.37" height="8.34" style="fill:#ebebeb"></rect><rect x="626.22" y="278.28" width="7.37" height="8.34" style="fill:#ebebeb"></rect><rect x="638.37" y="278.28" width="7.37" height="8.34" style="fill:#ebebeb"></rect><rect x="660.64" y="224.97" width="36.59" height="64.78" style="fill:#e0e0e0"></rect><rect x="666.52" y="230.36" width="5.78" height="6.53" style="fill:#fafafa"></rect><rect x="676.05" y="230.36" width="5.78" height="6.53" style="fill:#ebebeb"></rect><rect x="685.57" y="230.36" width="5.78" height="6.53" style="fill:#fafafa"></rect><rect x="666.52" y="240.2" width="5.78" height="6.53" style="fill:#ebebeb"></rect><rect x="676.05" y="240.2" width="5.78" height="6.53" style="fill:#fafafa"></rect><rect x="685.57" y="240.2" width="5.78" height="6.53" style="fill:#ebebeb"></rect><rect x="666.52" y="250.05" width="5.78" height="6.53" style="fill:#ebebeb"></rect><rect x="676.05" y="250.05" width="5.78" height="6.53" style="fill:#fafafa"></rect><rect x="685.57" y="250.05" width="5.78" height="6.53" style="fill:#fafafa"></rect><rect x="666.52" y="259.89" width="5.78" height="6.53" style="fill:#fafafa"></rect><rect x="676.05" y="259.89" width="5.78" height="6.53" style="fill:#ebebeb"></rect><rect x="685.57" y="259.89" width="5.78" height="6.53" style="fill:#fafafa"></rect><rect x="666.52" y="269.74" width="5.78" height="6.53" style="fill:#ebebeb"></rect><rect x="676.05" y="269.74" width="5.78" height="6.53" style="fill:#fafafa"></rect><rect x="685.57" y="269.74" width="5.78" height="6.53" style="fill:#ebebeb"></rect><rect x="666.52" y="279.58" width="5.78" height="6.53" style="fill:#ebebeb"></rect><rect x="676.05" y="279.58" width="5.78" height="6.53" style="fill:#ebebeb"></rect><rect x="685.57" y="279.58" width="5.78" height="6.53" style="fill:#ebebeb"></rect><path d="M664.49,135.35a16,16,0,0,0-1.82-3.77,5.21,5.21,0,0,0-3.42-2.23,3.17,3.17,0,0,0-3.38,1.91,19.68,19.68,0,0,0-2.12-8.64c-1.49-2.59-4.28-4.63-7.26-4.44-2.82.17-5.23,2.26-6.57,4.74a24.82,24.82,0,0,0-2.23,8.11c-1.07-1.31-3.32-.89-4.44.38a8.87,8.87,0,0,0-1.63,4.71h33.55Z" style="fill:#ebebeb"></path></g><g id="freepik--Floor--inject-117"><path d="M719.29,451.44c0,.14-154.16.26-344.27.26s-344.31-.12-344.31-.26,154.13-.26,344.31-.26S719.29,451.29,719.29,451.44Z" style="fill:#263238"></path></g><g id="freepik--speech-bubble--inject-117"><path d="M197.93,219.81a19.85,19.85,0,1,1,7.65,15.71h0l-6.66.86,1.91-6.17A19.7,19.7,0,0,1,197.93,219.81Z" style="fill:#fff"></path><path d="M197.93,219.81a15,15,0,0,0,.14,2.86,19.56,19.56,0,0,0,2.67,7.59v-.08l-1.93,6.16a.15.15,0,0,0,.08.17h.06l6.66-.84a.15.15,0,0,0,.13-.16l0-.08h0l-.21.2a20.09,20.09,0,0,0,8.05,3.79,18.69,18.69,0,0,0,4.87.43l1.26-.06c.43,0,.85-.12,1.27-.18a20.6,20.6,0,0,0,2.54-.56,20.05,20.05,0,0,0,4.87-2.2l.59-.36.55-.41c.37-.28.75-.54,1.1-.84a20.53,20.53,0,0,0,2-2,21.36,21.36,0,0,0,1.78-2.22,22.84,22.84,0,0,0,1.42-2.51,21.29,21.29,0,0,0,1.09-2.71,21.8,21.8,0,0,0,.65-2.88,19.62,19.62,0,0,0-.08-6.71,20.55,20.55,0,0,0-2.2-6.14,19.66,19.66,0,0,0-3.9-4.93,22.83,22.83,0,0,0-2.39-1.92,21.65,21.65,0,0,0-2.61-1.46l-.66-.32c-.22-.1-.46-.17-.68-.26-.46-.16-.91-.35-1.37-.49a22.23,22.23,0,0,0-5.51-.86,12.1,12.1,0,0,0-1.35,0,9.65,9.65,0,0,0-1.32.1,20,20,0,0,0-9,3.4,20.22,20.22,0,0,0-5.5,5.77,22.22,22.22,0,0,0-1.53,2.91,19.4,19.4,0,0,0-.86,2.62c-.1.4-.2.78-.28,1.14s-.11.7-.15,1-.09.6-.13.87,0,.51,0,.73c0,.42,0,.75,0,1s0,.34,0,.34l0-.34c0-.24,0-.56.07-1,0-.21,0-.46.06-.72s.09-.56.14-.87.11-.65.17-1,.19-.73.29-1.12a21.07,21.07,0,0,1,.89-2.59,22,22,0,0,1,1.54-2.87,20.18,20.18,0,0,1,5.47-5.65,19.75,19.75,0,0,1,8.91-3.32,11.05,11.05,0,0,1,1.3-.09,11.58,11.58,0,0,1,1.32,0,21.45,21.45,0,0,1,5.42.86c.45.14.89.32,1.34.48.22.09.45.16.67.26l.65.32a17.82,17.82,0,0,1,4.9,3.33,19.19,19.19,0,0,1,3.82,4.85,20,20,0,0,1,2.16,6,19.12,19.12,0,0,1,.07,6.58,21,21,0,0,1-.63,2.83,21.9,21.9,0,0,1-1.07,2.65,20.66,20.66,0,0,1-1.4,2.47,21.5,21.5,0,0,1-1.73,2.18,21,21,0,0,1-2,1.92c-.35.29-.73.55-1.09.82l-.54.41-.57.34a19.56,19.56,0,0,1-4.78,2.18,20.2,20.2,0,0,1-2.49.55c-.42.06-.84.14-1.25.18l-1.24.06a18.47,18.47,0,0,1-4.79-.4,19.85,19.85,0,0,1-7.93-3.7.15.15,0,0,0-.21,0,.15.15,0,0,0,0,.18h0l.1-.23-6.65.88.13.16c.7-2.28,1.34-4.36,1.89-6.18a.1.1,0,0,0,0-.09,19.89,19.89,0,0,1-2.74-7.5c-.14-.92-.18-1.63-.21-2.11l0-.55A1.23,1.23,0,0,0,197.93,219.81Z" style="fill:#263238"></path><path d="M212.58,220.12a2.31,2.31,0,1,1-2.3-2.31A2.32,2.32,0,0,1,212.58,220.12Z" style="fill:#263238"></path><path d="M220.06,220.18a2.31,2.31,0,1,1-2.3-2.32A2.31,2.31,0,0,1,220.06,220.18Z" style="fill:#263238"></path><path d="M227.42,219a2.31,2.31,0,1,1-3.15-.85A2.31,2.31,0,0,1,227.42,219Z" style="fill:#263238"></path></g><g id="freepik--Table--inject-117"><path d="M493.78,262.87h22.76A22.44,22.44,0,0,1,539,285.31v33.92a0,0,0,0,1,0,0H471.34a0,0,0,0,1,0,0V285.31A22.44,22.44,0,0,1,493.78,262.87Z" style="fill:#263238"></path><rect x="310.94" y="326.31" width="244.56" height="124.51" style="fill:#ae7461"></rect><path d="M555.5,347.52c0,.15-54.81.26-122.42.26s-122.42-.11-122.42-.26,54.8-.26,122.42-.26S555.5,347.38,555.5,347.52Z" style="fill:#263238"></path><path d="M555.5,364.24c0,.14-54.81.26-122.42.26s-122.42-.12-122.42-.26,54.8-.26,122.42-.26S555.5,364.09,555.5,364.24Z" style="fill:#263238"></path><path d="M555.5,381c0,.15-54.81.26-122.42.26s-122.42-.11-122.42-.26,54.8-.26,122.42-.26S555.5,380.81,555.5,381Z" style="fill:#263238"></path><path d="M555.5,397.67c0,.14-54.81.26-122.42.26s-122.42-.12-122.42-.26,54.8-.26,122.42-.26S555.5,397.52,555.5,397.67Z" style="fill:#263238"></path><path d="M555.5,414.38c0,.14-54.81.26-122.42.26s-122.42-.12-122.42-.26,54.8-.26,122.42-.26S555.5,414.24,555.5,414.38Z" style="fill:#263238"></path><path d="M555.5,431.09c0,.15-54.81.26-122.42.26s-122.42-.11-122.42-.26,54.8-.26,122.42-.26S555.5,431,555.5,431.09Z" style="fill:#263238"></path><rect x="299.11" y="314.91" width="256.39" height="11.4" style="fill:#6f4439"></rect></g><g id="freepik--character-3--inject-117"><path d="M599.75,227.38h0a8.58,8.58,0,0,1-8.58,8.58H570V218.8h21.13A8.58,8.58,0,0,1,599.75,227.38Z" style="fill:#263238"></path><rect x="560.88" y="218.8" width="9.17" height="17.16" style="fill:#263238"></rect><polygon points="570.04 218.8 558.68 214.22 558.68 240.51 570.04 235.96 570.04 218.8" style="fill:#455a64"></polygon><path d="M570,218.8a8.88,8.88,0,0,1,.06,1.2c0,.86,0,2,.06,3.47,0,3.08.06,7.37.11,12.49v.15l-.15.06-11.35,4.58-.35.15v-5c0-8.29,0-15.88.06-21.72v-.3l.27.12,8.31,3.45,2.23,1a5,5,0,0,1,.75.35,7.22,7.22,0,0,1-.84-.28l-2.3-.88-8.3-3.23.28-.19c0,5.84,0,13.43.06,21.72v4.57l-.36-.24L570,235.75l-.15.21c.05-5.07.08-9.32.11-12.38,0-1.46.05-2.64.06-3.51q0-.56,0-.93A1.66,1.66,0,0,1,570,218.8Z" style="fill:#263238"></path><rect x="601.17" y="209.22" width="8.4" height="4.04" transform="translate(1210.74 422.48) rotate(180)" style="fill:#263238"></rect><rect x="585.64" y="212.81" width="62.97" height="28.87" style="fill:#455a64"></rect><rect x="601.17" y="241.68" width="29.16" height="12.66" transform="translate(1231.51 496.01) rotate(180)" style="fill:#455a64"></rect><rect x="590.83" y="202.98" width="29.72" height="7.36" transform="translate(1211.39 413.33) rotate(180)" style="fill:#455a64"></rect><path d="M598.52,210.07a23.86,23.86,0,0,0,0-6.61,23.86,23.86,0,0,0,0,6.61Z" style="fill:#263238"></path><path d="M612.75,210.07a23.86,23.86,0,0,0,0-6.61,23.86,23.86,0,0,0,0,6.61Z" style="fill:#263238"></path><path d="M631.44,241.68c0-.13-10.16-.18-22.69-.11s-22.68.22-22.68.34,10.16.18,22.69.12S631.44,241.81,631.44,241.68Z" style="fill:#263238"></path><polygon points="662.44 459.28 628.47 289.87 622.98 291.01 659.04 459.28 662.44 459.28" style="fill:#455a64"></polygon><polygon points="568.73 459.28 601.17 289.87 606.49 293.27 572.13 459.28 568.73 459.28" style="fill:#455a64"></polygon><polygon points="621.74 289.87 617.13 271.03 612.32 271.03 607.76 289.87 621.74 289.87" style="fill:#263238"></polygon><rect x="611.77" y="254.33" width="6.53" height="17.94" transform="translate(1230.06 526.61) rotate(180)" style="fill:#263238"></rect><path d="M608.29,269.83a6.53,6.53,0,1,0,6.53-6.53A6.53,6.53,0,0,0,608.29,269.83Z" style="fill:#455a64"></path><rect x="601.17" y="289.86" width="27.3" height="5.29" transform="translate(1229.64 585.02) rotate(180)" style="fill:#455a64"></rect><rect x="642.6" y="202.98" width="5.05" height="9.82" transform="translate(1290.24 415.79) rotate(180)" style="fill:#263238"></rect><rect x="630.33" y="188.36" width="27.18" height="15.14" style="fill:#455a64"></rect><rect x="656.98" y="189.43" width="3.76" height="12.47" transform="translate(1317.71 391.32) rotate(180)" style="fill:#455a64"></rect><path d="M641.14,203a58.56,58.56,0,0,0,.23-7.37,58.56,58.56,0,0,0-.23-7.37,60.93,60.93,0,0,0-.23,7.37A60.93,60.93,0,0,0,641.14,203Z" style="fill:#263238"></path><path d="M631.88,196.11a3.22,3.22,0,1,0,3.22-3.22A3.22,3.22,0,0,0,631.88,196.11Z" style="fill:#263238"></path><path d="M644.87,191.8h5.54a.79.79,0,0,0,.8-.79h0a.79.79,0,0,0-.8-.79h-5.54a.79.79,0,0,0-.79.79h0A.79.79,0,0,0,644.87,191.8Z" style="fill:#263238"></path><path d="M657.64,203.35a56.4,56.4,0,0,0,.23-7.23,56.5,56.5,0,0,0-.23-7.24,60.11,60.11,0,0,0-.22,7.24A60,60,0,0,0,657.64,203.35Z" style="fill:#263238"></path><path d="M721.45,194.15a23.14,23.14,0,0,0-3.31-7.12,2.32,2.32,0,0,0,.64-3.3,3.32,3.32,0,0,0-.92-5.41,2.19,2.19,0,0,0-.26-2.88,6.39,6.39,0,0,0-2.81-1.44l-6-1.87a4.38,4.38,0,0,0-5.54-2.41c-1.2-1.8-6.88-2.69-9.42-.35-9.65-8.49-15.42-8-23.87-4.91-2.09.77-5,3-5.82,5.06a23.19,23.19,0,0,0-5.26,1.8,4.83,4.83,0,0,0-2.72,2.5c-.4,1.2.53,2.83,1.78,2.62a8.51,8.51,0,0,0-3.87,3.08c-.8,1.47-.39,3.72,1.21,4.22a27.35,27.35,0,0,0-3.71,8.13,3.64,3.64,0,0,0-.3.63,3.39,3.39,0,0,0,1.48,6.18,4.42,4.42,0,0,0,2.1,8.33,5.77,5.77,0,0,0,5.75,10,11.85,11.85,0,0,0,12.7,5.13,25.86,25.86,0,0,1,3.63-.95c1.53-.15,3.08.29,4.6.06,2.54-.4,4.46-2.64,5.25-5.09,2.67-.28,5.43-.68,8.46-1.21,4.5,4.08,9.05.75,8.49-1,2.63-.14,4,.21,6.43-.79a9.2,9.2,0,0,0,3.17-1.84l.38-.44a4.24,4.24,0,0,0-.43-5.84,1,1,0,0,1-.28-.68,5,5,0,0,1,3-.25,3.76,3.76,0,0,0,2.95-.54c.77-.69.61-2.3-.42-2.42a2.71,2.71,0,0,0,.14-2.92c.83.72,2.24.13,2.72-.86A4.72,4.72,0,0,0,721.45,194.15Z" style="fill:#263238"></path><path d="M695,178.43l-13.78-6.09c-5.47-1.37-10.14,4.94-11.28,10.46-1.27,6.13-2.58,13.67-2.51,18.4A14.29,14.29,0,0,0,675.6,214s-.76,5.68-.76,5.68c.29,4.45,4.93,5,4.93,5,12.71,1.52,14.26-5.59,14.26-5.59l3.34-35.26C697.65,182.13,696.64,178.84,695,178.43Z" style="fill:#ae7461"></path><path d="M677.56,197.85a8.71,8.71,0,0,0-2-.67c-.32-.08-.62-.19-.64-.42a1.64,1.64,0,0,1,.35-.94l1.33-2.36a43,43,0,0,0,3.1-6.21,42.91,42.91,0,0,0-3.6,5.95c-.44.83-.87,1.62-1.28,2.37a1.89,1.89,0,0,0-.35,1.26.84.84,0,0,0,.47.56,2.88,2.88,0,0,0,.54.16A8.76,8.76,0,0,0,677.56,197.85Z" style="fill:#263238"></path><path d="M675.6,214a31,31,0,0,0,11.83-2.68s-2.73,5.68-12.18,5.5Z" style="fill:#6f4439"></path><path d="M684.44,184c.08.37,1.38.39,2.86.78s2.64,1,2.88.7,0-.5-.5-.91a4.91,4.91,0,0,0-2-1.06,5,5,0,0,0-2.32-.06C684.73,183.63,684.41,183.86,684.44,184Z" style="fill:#263238"></path><path d="M672.08,182.63c.19.32,1.11.14,2.18.28s1.93.47,2.18.2,0-.45-.34-.78a3.12,3.12,0,0,0-1.7-.73,3.07,3.07,0,0,0-1.81.34C672.17,182.19,672,182.47,672.08,182.63Z" style="fill:#263238"></path><path d="M665.29,186.88a6.4,6.4,0,0,1,1.94-3.87c.6-.53,1.34-.91,1.89-1.5,1.18-1.28,1.22-3.21,1.83-4.84a7.09,7.09,0,0,1,4.83-4.32c1.81-.46,3.78-.18,5.51-.89,1.28-.53,2.31-1.56,3.61-2,2.55-.87,5.25.65,7.42,2.24.27,1.87-1,3.34-2.3,4.75a6.54,6.54,0,0,1-5,2.15c-1.47-.05-3.14-.55-4.26.39s-1,3-2,4.13c-1.44,1.67-4.26.71-6.26,1.63-1.55.71-2.33,2.41-3.22,3.86s-2.31,2.92-4,2.68A19,19,0,0,1,665.29,186.88Z" style="fill:#263238"></path><path d="M688.35,174.67a33.14,33.14,0,0,1,12.28,3.46,6.1,6.1,0,0,1,2.88,2.43,6,6,0,0,1,.33,3.3c-.38,3.49-2.2,7.63-3.85,10.73l-4.62,2.19c-3.28-1.12-1.17-6.78-.73-9.67a6.91,6.91,0,0,1-3.42-6.45A7.67,7.67,0,0,1,688.35,174.67Z" style="fill:#263238"></path><path d="M695.56,195.53c.32-2,2.81-2.14,4.43-.94.89.66,1.49,1.84,1.16,3.95-.87,5.63-6.34,3.59-6.32,3.43S695.17,197.85,695.56,195.53Z" style="fill:#ae7461"></path><path d="M696.88,200.11s.08.08.24.18a1,1,0,0,0,.73.13,2.46,2.46,0,0,0,1.46-2,3.33,3.33,0,0,0-.06-1.45,1.12,1.12,0,0,0-.62-.86.5.5,0,0,0-.62.17c-.1.15-.08.27-.11.27s-.11-.11,0-.34a.62.62,0,0,1,.28-.31.71.71,0,0,1,.56-.06,1.37,1.37,0,0,1,.89,1,3.36,3.36,0,0,1,.1,1.62,2.58,2.58,0,0,1-1.81,2.21,1.06,1.06,0,0,1-.87-.29C696.86,200.24,696.85,200.11,696.88,200.11Z" style="fill:#6f4439"></path><path d="M682.59,193a1.24,1.24,0,0,0,1,1.4,1.19,1.19,0,0,0,1.42-.92,1.24,1.24,0,0,0-1-1.4A1.18,1.18,0,0,0,682.59,193Z" style="fill:#263238"></path><path d="M671.27,191.68a1.24,1.24,0,0,0,1,1.4,1.17,1.17,0,0,0,1.41-.92,1.23,1.23,0,0,0-1-1.4A1.19,1.19,0,0,0,671.27,191.68Z" style="fill:#263238"></path><path d="M671.8,186.92c.1.2,1.1-.35,2.29-.1s1.92,1.13,2.08,1,0-.39-.3-.79a2.74,2.74,0,0,0-3.49-.71C671.94,186.55,671.75,186.83,671.8,186.92Z" style="fill:#263238"></path><path d="M683.23,189c.15.21,1.26-.49,2.71-.34s2.43,1,2.6.87,0-.44-.47-.85a3.54,3.54,0,0,0-2.06-.92,3.43,3.43,0,0,0-2.18.51C683.35,188.61,683.16,188.93,683.23,189Z" style="fill:#263238"></path><path d="M683,201.19a1.8,1.8,0,0,0-1.68-1.59,1.9,1.9,0,0,0-1.57.85,2.31,2.31,0,0,0-.3,1.78v.13a2.06,2.06,0,0,0,2.23.78A1.92,1.92,0,0,0,683,201.19Z" style="fill:#6f4439"></path><path d="M678.45,202.26c0-.2,1.4,0,2.59-1s1.3-2.51,1.49-2.49.21.38.12,1a3.5,3.5,0,0,1-1.17,2.09,3,3,0,0,1-2.15.73C678.74,202.57,678.42,202.36,678.45,202.26Z" style="fill:#263238"></path><path d="M713.6,187.56a16.15,16.15,0,0,1,7.43,1.6,7.63,7.63,0,0,1,4.18,6c.11,2.56-1.89,5.2-4.45,5.28a6,6,0,0,1-2.63,11.45c2.74,1.34,2.85,5.55.89,7.89s-5.15,3.19-8.16,3.66a11.09,11.09,0,0,1-19.94-.91,6.58,6.58,0,0,1-.24-13.15,5.35,5.35,0,0,1,1.39-4.84,5.87,5.87,0,0,1,5.6-2s2.86,0,3.8-1.91,1.53-6.63,1.53-6.63Z" style="fill:#263238"></path><path d="M700,198.52a1.7,1.7,0,1,1-1.7-1.7A1.7,1.7,0,0,1,700,198.52Z" style="fill:#455a64"></path><path d="M685.71,204.15a15.69,15.69,0,0,1-1.81-.1l.1-1a17.15,17.15,0,0,0,13.78-4.9l.71.7A18.13,18.13,0,0,1,685.71,204.15Z" style="fill:#455a64"></path><rect x="683" y="202.46" width="3.46" height="2.3" rx="0.76" style="fill:#455a64"></rect><path d="M698.78,198.44l-.93-.37a39.34,39.34,0,0,0,2.07-16.44,17.93,17.93,0,0,0-6.35-11.86l.6-.8a18.58,18.58,0,0,1,6.75,12.57A39.8,39.8,0,0,1,698.78,198.44Z" style="fill:#455a64"></path><path d="M685,218.36l-7.05-.57s-18,14.32-21.66,32.56-7.9,36.46-7.9,36.46l32.81,4a37.19,37.19,0,0,0,10.27-.14l3.42-.51L692,278.61s5.2-21.91,7.23-30.17a37,37,0,0,0,.13-17.8A16.2,16.2,0,0,0,685,218.36Z" style="fill:#B8241C"></path><g style="opacity:0.30000000000000004"><path d="M663.12,253.93,649.82,280c3.45-.12,5.9-1.56,8.24-4.08a37.55,37.55,0,0,0,5.53-8.7c3.95-7.78,7.77-15.88,8.55-24.57A96,96,0,0,0,663.12,253.93Z"></path></g><path d="M697.42,226s18.1,37.75,16.74,42.9c-1.54,5.81-6.7,8-10.24,6.88s-12.42-7.31-12.42-7.31Z" style="fill:#B8241C"></path><path d="M595.61,242.05c-.54-2.62,11,.1,12.68.65,1.07.34,3.71,1.51,3.71,1.51,1.48.54,1.28-.66,1.28-.66a7.47,7.47,0,0,0-1.23-2.86,8.5,8.5,0,0,1-1-2.37c-.12-1.61,1.11-2.8,2.14-1a14,14,0,0,0,2,2.46C617.4,242,624.71,250,624.71,250l-5.64,7.36s-3.76-1.84-7.44-3.8c-3.34-1.78-10.5-7.07-15.75-10.88" style="fill:#ae7461"></path><path d="M623.66,247.45c.19.29,19.36,11.25,19.36,11.25s9-17.08,11.85-23,6.34-14.28,10.92-16.86,12.12-1,12.12-1L674.85,240l-7.44,16s-8.83,17.65-13.68,21.76c-4.41,3.74-11.26,2.24-14.39.41s-23.6-19.47-23.6-19.47Z" style="fill:#B8241C"></path><path d="M674.85,240.28a2.07,2.07,0,0,1-.19.53L674,242.3c-.56,1.29-1.39,3.14-2.45,5.41-2.12,4.55-5.17,10.77-8.78,17.52a69.9,69.9,0,0,1-5.55,9.27,19.4,19.4,0,0,1-3.31,3.39,11.59,11.59,0,0,1-3.67,1.92,12.25,12.25,0,0,1-5.93.3,10.64,10.64,0,0,1-1.57-.42,2.06,2.06,0,0,1-.52-.22s.74.24,2.12.47a12.45,12.45,0,0,0,5.8-.44,11.15,11.15,0,0,0,3.54-1.9,19,19,0,0,0,3.21-3.35A71,71,0,0,0,662.4,265c3.61-6.74,6.7-12.94,8.89-17.45l2.58-5.34.71-1.45A3.36,3.36,0,0,1,674.85,240.28Z" style="fill:#263238"></path><path d="M699.75,240.79a4.59,4.59,0,0,1-.09,1.28c-.1.81-.26,2-.49,3.44-.45,2.91-1.14,6.92-2,11.33s-1.68,8.39-2.35,11.25c-.35,1.43-.63,2.59-.86,3.38a6.74,6.74,0,0,1-.39,1.22,6.91,6.91,0,0,1,.22-1.26l.72-3.41c.6-2.87,1.38-6.86,2.22-11.27s1.54-8.32,2.1-11.29c.25-1.38.47-2.53.63-3.42S699.73,240.79,699.75,240.79Z" style="fill:#263238"></path><path d="M649.69,439l1.69,17.54s-19.12,7.14-19.33,10.67l36.14.1,0-2.64-1.51-9-2.24-17.52Z" style="fill:#455a64"></path><path d="M662.25,453.81a1.51,1.51,0,0,1,1,1.73,1.44,1.44,0,0,1-1.69,1,1.59,1.59,0,0,1-1.1-1.83,1.5,1.5,0,0,1,1.88-.9" style="fill:#e0e0e0"></path><path d="M668.19,467.31l0-2.64-34.66.66s-1.65.72-1.46,1.88Z" style="fill:#263238"></path><path d="M650.78,456.35c0,.18.91.26,1.8.84s1.36,1.33,1.53,1.26-.11-1.11-1.2-1.79S650.74,456.18,650.78,456.35Z" style="fill:#263238"></path><path d="M646.9,458c0,.18.74.48,1.36,1.25s.79,1.57,1,1.56.3-1-.49-2S646.9,457.79,646.9,458Z" style="fill:#263238"></path><path d="M644.71,462.61c.16,0,.41-.86-.05-1.85s-1.31-1.38-1.39-1.23.45.68.82,1.49S644.53,462.59,644.71,462.61Z" style="fill:#263238"></path><path d="M649.49,452.13c.08.17.91-.08,1.93,0s1.82.39,1.91.23-.67-.79-1.88-.86S649.41,452,649.49,452.13Z" style="fill:#263238"></path><path d="M694.1,439.49l1.55,17.24s-18.82,6.9-19,10.37l35.51.32v-2.6L710.67,456l-2.09-17.23Z" style="fill:#455a64"></path><path d="M706.35,454.13a1.46,1.46,0,0,1,1,1.69,1.42,1.42,0,0,1-1.67,1,1.57,1.57,0,0,1-1.07-1.8,1.48,1.48,0,0,1,1.86-.88" style="fill:#e0e0e0"></path><path d="M712.11,467.42v-2.6l-34.05.45s-1.62.69-1.45,1.83Z" style="fill:#263238"></path><path d="M695.06,456.55c0,.17.9.26,1.77.83s1.33,1.32,1.49,1.25-.09-1.09-1.16-1.77S695,456.38,695.06,456.55Z" style="fill:#263238"></path><path d="M691.25,458.11c0,.17.72.47,1.32,1.23s.77,1.54.95,1.54.29-1-.47-1.93S691.25,457.94,691.25,458.11Z" style="fill:#263238"></path><path d="M689.07,462.66c.16,0,.41-.85-.05-1.82s-1.28-1.36-1.35-1.21.43.66.79,1.47S688.89,462.64,689.07,462.66Z" style="fill:#263238"></path><path d="M693.83,452.4c.07.16.89-.08,1.89,0s1.78.39,1.88.24-.66-.79-1.84-.86S693.74,452.26,693.83,452.4Z" style="fill:#263238"></path><path d="M648.91,286.48s-8.56,24.81-8.86,43.26-.59,47.81,3.25,80.18,5.61,45.38,5.61,45.38h19.5a383.86,383.86,0,0,0,1.77-38.42c-.3-18.16-1.72-23.9,0-43.87s4.5-32,7.4-38c0,0,8-9.56,8.64-22.68a64,64,0,0,0-4-24.4Z" style="fill:#263238"></path><path d="M666.24,321.28c.32,1,6.1,41.67,10.33,59.61s8.91,22.69,9.73,37.29c1,16.78,5.56,37.12,5.56,37.12h20.76s-2.92-31-5.84-55.28-7.14-54.15-6.49-63.12,2.27-20,0-32.62-7.18-15.88-7.18-15.88l-17.61-.79Z" style="fill:#263238"></path><path d="M685.77,298a3.21,3.21,0,0,1,.33.63,13.35,13.35,0,0,1,.7,1.91,25.44,25.44,0,0,1,.69,7.44,49,49,0,0,1-1.71,10.94,34.94,34.94,0,0,1-2.27,6.16,42.5,42.5,0,0,1-3.75,5.95c-2.82,3.89-4.21,8.32-5.27,12.31a90.38,90.38,0,0,0-2,10.86c-.38,3.12-.61,5.66-.78,7.41-.09.84-.16,1.52-.21,2a3.6,3.6,0,0,1-.1.7,4.76,4.76,0,0,1,0-.71l.12-2c.12-1.75.3-4.3.65-7.43a82.37,82.37,0,0,1,1.88-10.91,54.06,54.06,0,0,1,2-6.26,29.74,29.74,0,0,1,1.45-3.16,33.2,33.2,0,0,1,1.88-3,43.56,43.56,0,0,0,3.73-5.9,34.86,34.86,0,0,0,2.26-6.07A49.93,49.93,0,0,0,687.18,308a26.72,26.72,0,0,0-.54-7.38,16,16,0,0,0-.62-1.91A6,6,0,0,1,685.77,298Z" style="fill:#455a64"></path><polygon points="697.24 293.45 646.23 293.45 648.35 284.93 693.86 284.88 697.24 293.45" style="fill:#455a64"></polygon><path d="M653.83,289.81a142.89,142.89,0,0,0-.06,18c.16,2.76.45,5.65,2,7.91,2.61,3.79,8,4.6,12.49,3.83,2.28-.38,4.67-1.2,6-3.12,1-1.57,1.15-3.57,1.22-5.46q.39-11.19.79-22.37Z" style="fill:#455a64"></path></g><g id="freepik--character-2--inject-117"><path d="M384.44,424.35l.73,19.14S366,450.66,365.75,454.2l37.16-.07.09-29.87Z" style="fill:#263238"></path><path d="M396.65,441.85a1.53,1.53,0,0,1,1.06,1.73,1.47,1.47,0,0,1-1.71,1.06,1.59,1.59,0,0,1-1.1-1.84,1.51,1.51,0,0,1,1.89-.9" style="fill:#e0e0e0"></path><path d="M402.91,454.13l-.11-3-35.59,1.2s-1.65.72-1.46,1.88Z" style="fill:#455a64"></path><path d="M384.56,443.3c0,.18.92.26,1.81.84s1.37,1.35,1.54,1.27-.11-1.12-1.2-1.8S384.52,443.13,384.56,443.3Z" style="fill:#fff"></path><path d="M380.67,444.92c0,.18.75.48,1.36,1.25s.8,1.58,1,1.57.3-1-.49-2S380.67,444.75,380.67,444.92Z" style="fill:#fff"></path><path d="M378.47,449.59c.16,0,.41-.87-.06-1.86s-1.31-1.39-1.39-1.24.45.68.82,1.51S378.29,449.57,378.47,449.59Z" style="fill:#fff"></path><path d="M384.88,438.92c.08.17.91-.09,1.94,0s1.82.39,1.92.23-.68-.8-1.89-.86S384.79,438.78,384.88,438.92Z" style="fill:#fff"></path><path d="M427.36,424.47l2,23.08-3.67,18.72a2.37,2.37,0,0,0,2,2.81h0a2.37,2.37,0,0,0,2-.74c3.31-3.61,15.43-17,15.19-18.64-.28-1.94-.51-24.49-.51-24.49Z" style="fill:#263238"></path><path d="M427.73,469.08l17.13-20.94.06,1a3.59,3.59,0,0,1-.7,2.37c-1.36,1.82-5.21,6.76-14.38,16.84a2.36,2.36,0,0,1-2.11.75Z" style="fill:#455a64"></path><g style="opacity:0.6000000000000001"><path d="M439.63,441a1.43,1.43,0,0,0-.27,1.89,1.37,1.37,0,0,0,1.88.29,1.52,1.52,0,0,0,.28-2,1.44,1.44,0,0,0-2-.08" style="fill:#fff"></path></g><path d="M432.37,458.64a7.22,7.22,0,0,0-2.15-1.67,7.35,7.35,0,0,0-2.69-.34c0-.05.26-.25.79-.36a3.76,3.76,0,0,1,3.74,1.55C432.36,458.28,432.42,458.62,432.37,458.64Z" style="fill:#fff"></path><path d="M430.92,461.84a7.13,7.13,0,0,0-4.39-1,2.66,2.66,0,0,1,2.39-.35C430.31,460.79,431,461.77,430.92,461.84Z" style="fill:#fff"></path><path d="M435.18,454.47a24.17,24.17,0,0,0-3.17-1.55,24.65,24.65,0,0,0-3.48-.58,5.24,5.24,0,0,1,3.63.1A5.31,5.31,0,0,1,435.18,454.47Z" style="fill:#fff"></path><path d="M435.15,447.41c0,.14-1.36-.31-3-.27s-3,.53-3,.39a4.61,4.61,0,0,1,3-.9A4.54,4.54,0,0,1,435.15,447.41Z" style="fill:#fff"></path><path d="M434.73,440.61a11.42,11.42,0,0,0-3.14-.35,11.86,11.86,0,0,0-3,1s.19-.35.7-.69a5.17,5.17,0,0,1,4.63-.46C434.47,440.31,434.76,440.56,434.73,440.61Z" style="fill:#fff"></path><path d="M431.54,439a1.91,1.91,0,0,1-.08-.87,6,6,0,0,1,.54-2.33,2.75,2.75,0,0,1,1.08-1.37,1,1,0,0,1,1.08.15,1.6,1.6,0,0,1,.44,1,3.34,3.34,0,0,1-2.74,3.28,3.9,3.9,0,0,1-3.95-1.78,1.36,1.36,0,0,1-.13-1.12,1,1,0,0,1,.94-.56,3.3,3.3,0,0,1,1.58.7,6.81,6.81,0,0,1,1.69,1.69,2.22,2.22,0,0,1,.41.78,10.72,10.72,0,0,0-2.3-2.17,3,3,0,0,0-1.39-.57.51.51,0,0,0-.52.3.94.94,0,0,0,.14.72,3.45,3.45,0,0,0,3.44,1.51,2.91,2.91,0,0,0,2.36-2.75,1.17,1.17,0,0,0-.27-.73.53.53,0,0,0-.6-.08,2.41,2.41,0,0,0-.93,1.13A9.14,9.14,0,0,0,431.54,439Z" style="fill:#fff"></path><path d="M369.69,298.32h0c.11-2.45.34-5.19.62-7.2a78.72,78.72,0,0,0,7.75,1.82c6,1,13.94-2.88,20.16-3.38h0c12.59-1.06,24.15-.66,37.17-4.52l1.95,14.81,4.76,71,3.47,72.31H424.07s-7.59-55.62-8.18-63.32c-.66-8.57-10.94-61.75-10.94-61.75l-1.87-.46,1.16,124.64h-22.3s-12.07-133.94-12.25-138.71C369.62,301.74,369.63,300,369.69,298.32Z" style="fill:#263238"></path><path d="M419.25,170.16a69.33,69.33,0,0,0,3.16-11.53,24.26,24.26,0,0,0-.8-11.82c-.21-.57-2-4.39-2.56-4.34-.43,0,.63,3.6.41,4A20.54,20.54,0,0,0,417,158.38a55.09,55.09,0,0,0,2.25,11.78" style="fill:#263238"></path><path d="M404.83,136.19l-.92,0a17.87,17.87,0,0,0-17.14,17.16c-.34,8.67-.61,18.25-.36,22.88.52,9.59,10.17,10.68,10.17,10.68s.05,8.93.05,8.93l9.51,4.08,12.59-6.25,1.1-38.76C420.28,145,414.84,136.36,404.83,136.19Z" style="fill:#ffbf9d"></path><path d="M396.58,187a23.18,23.18,0,0,0,12.34-4.2s-2.71,7.33-12.31,6.86Z" style="fill:#ff9a6c"></path><path d="M389.43,161.94a1.38,1.38,0,0,0,1.38,1.33,1.32,1.32,0,0,0,1.36-1.3,1.36,1.36,0,0,0-1.38-1.32A1.32,1.32,0,0,0,389.43,161.94Z" style="fill:#263238"></path><path d="M389,157.55c.18.17,1.19-.64,2.66-.7s2.59.63,2.74.45-.11-.4-.6-.72a3.78,3.78,0,0,0-4.31.19C389,157.14,388.9,157.47,389,157.55Z" style="fill:#263238"></path><path d="M402.75,161.94a1.38,1.38,0,0,0,1.38,1.33,1.31,1.31,0,0,0,1.36-1.3,1.36,1.36,0,0,0-1.38-1.32A1.32,1.32,0,0,0,402.75,161.94Z" style="fill:#263238"></path><path d="M403.45,157.29c.17.17,1.18-.64,2.66-.7s2.58.64,2.73.45-.11-.4-.59-.72a3.81,3.81,0,0,0-2.2-.58,3.56,3.56,0,0,0-2.11.78C403.5,156.88,403.36,157.21,403.45,157.29Z" style="fill:#263238"></path><path d="M398.63,168.84a9.36,9.36,0,0,0-2.42-.34c-.37,0-.73-.08-.81-.33a1.89,1.89,0,0,1,.21-1.13c.31-.93.65-1.9,1-2.91,1.38-4.15,2.36-7.55,2.19-7.6s-1.42,3.26-2.79,7.4l-.95,2.93a2.13,2.13,0,0,0-.13,1.49.92.92,0,0,0,.64.52,2.5,2.5,0,0,0,.64.06A10.09,10.09,0,0,0,398.63,168.84Z" style="fill:#263238"></path><path d="M402.78,152.7c.22.37,1.63-.09,3.37-.2s3.2.1,3.36-.29c.07-.19-.24-.52-.86-.8a5.89,5.89,0,0,0-5.13.38C402.94,152.16,402.68,152.52,402.78,152.7Z" style="fill:#263238"></path><path d="M388.74,153.21c.31.33,1.5-.05,2.95-.1s2.67.15,2.94-.21c.12-.17-.08-.5-.62-.8a4.72,4.72,0,0,0-2.42-.49,4.48,4.48,0,0,0-2.33.74C388.75,152.7,388.6,153.05,388.74,153.21Z" style="fill:#263238"></path><path d="M419.34,162.08c.16-.08,6.51-2.22,6.58,4.35s-6.55,5.27-6.56,5.08S419.34,162.08,419.34,162.08Z" style="fill:#ffbf9d"></path><path d="M421.34,169s.12.07.31.16a1.13,1.13,0,0,0,.86,0,2.83,2.83,0,0,0,1.28-2.55,3.91,3.91,0,0,0-.33-1.64,1.35,1.35,0,0,0-.87-.87.61.61,0,0,0-.68.32c-.08.19,0,.32-.07.33s-.15-.11-.09-.38A.68.68,0,0,1,422,164a.89.89,0,0,1,.63-.18,1.61,1.61,0,0,1,1.21,1,4,4,0,0,1,.41,1.83,3,3,0,0,1-1.64,2.85,1.22,1.22,0,0,1-1.05-.17C421.35,169.16,421.32,169,421.34,169Z" style="fill:#ff9a6c"></path><path d="M391,142.51c-1.06-.58,2.13-4,4.74-5.21,3.94-1.8,10-2.9,13.61-1.87,4.38,1.24,8,3.42,10.23,7.4a25.82,25.82,0,0,1,2.9,13.19,7.75,7.75,0,0,1-.92,4c-.92,1.46-2.68,2.37-2.6,4.37a2.76,2.76,0,0,1-.68,2c-1.2,1.28-2.67.08-3.35-1.13-1.44-2.57-1.6-5.64-1.73-8.59a19.19,19.19,0,0,1,.41-6.24c.32-1.1.84-2.13,1.1-3.24a4,4,0,0,0-.47-3.28,4.31,4.31,0,0,0-.53-.54,6.85,6.85,0,0,0-6.8-1.29c-3.7,1.31-10,3.27-11.66,2a9.92,9.92,0,0,1-2.94-3Z" style="fill:#263238"></path><path d="M403.26,169.75c-.23,0-.24,1.49-1.53,2.56s-2.9.89-2.92,1.1.36.29,1,.32a3.81,3.81,0,0,0,2.43-.84,3.3,3.3,0,0,0,1.19-2.14C403.53,170.12,403.36,169.74,403.26,169.75Z" style="fill:#263238"></path><path d="M407.55,166.72a7.68,7.68,0,0,0-2.44-1.16,7.36,7.36,0,0,0-2.69.3c0-.06.19-.31.69-.54a3.53,3.53,0,0,1,2.09-.28,3.66,3.66,0,0,1,1.88,1C407.47,166.37,407.6,166.69,407.55,166.72Z" style="fill:#ff9a6c"></path><path d="M299.38,225.47s-2.11.71-.72,3.58a21.4,21.4,0,0,0,3,4.71l-5.17-.23s-9.29-2.25-10.71-1a2.24,2.24,0,0,0-.79,2.59,1.94,1.94,0,0,0,.22,2.53,10.68,10.68,0,0,0,3.34,1.82,3.42,3.42,0,0,0,2.2,2,4,4,0,0,0,3.37,3.59,3,3,0,0,0,2.32,3.66c3,.7,9.08,2.53,11.5,2.4s3.19-.86,3.19-.86l1.52-8.38s0-2.86-2.7-6.79C308.34,232.68,302.05,225.47,299.38,225.47Z" style="fill:#ffbf9d"></path><path d="M290.7,241.67a5.29,5.29,0,0,1,.89-1.36,16.12,16.12,0,0,0,1-1.38,1.13,1.13,0,0,0-.25-1.57,1.63,1.63,0,0,0-1.75,0,4.12,4.12,0,0,0-1.23,1.08,6,6,0,0,0-.6,1,.52.52,0,0,1-.12.18.16.16,0,0,1-.2,0c-.1-.08,0-.17,0-.14s.1.16.15-.13a4.13,4.13,0,0,1,1.78-2.4,2.41,2.41,0,0,1,1.09-.33,2,2,0,0,1,1.2.35,1.53,1.53,0,0,1,.66,1.1,1.89,1.89,0,0,1-.3,1.13,10.49,10.49,0,0,1-1.12,1.38C291.2,241.28,290.76,241.72,290.7,241.67Z" style="fill:#ff9a6c"></path><path d="M295.05,243.43a7.6,7.6,0,0,1,.88-1.65l.49-.8a5.71,5.71,0,0,0,.5-.91,1,1,0,0,0-.06-.92,1.45,1.45,0,0,0-.89-.56,2.92,2.92,0,0,0-2.09.7c-.61.44-1.17.84-1.63,1.19a15,15,0,0,1-1.47,1.13,4.57,4.57,0,0,1,1.24-1.42c.44-.39,1-.82,1.58-1.29a3.29,3.29,0,0,1,2.48-.82,1.93,1.93,0,0,1,1.21.79,1.4,1.4,0,0,1,.07,1.37,4.77,4.77,0,0,1-.57,1l-.55.78C295.56,242.92,295.11,243.48,295.05,243.43Z" style="fill:#ff9a6c"></path><path d="M300.88,247.12s-.29-.25-.86-.51a2.94,2.94,0,0,0-2.45,0l-.67.32.38-.64a7.88,7.88,0,0,0,1.34-3.14,1.35,1.35,0,0,0-.38-1.13,1.05,1.05,0,0,0-1.05-.08,5,5,0,0,0-1.56,1.53,8.73,8.73,0,0,1-1.4,1.62,8.86,8.86,0,0,1,1.11-1.84,4.75,4.75,0,0,1,1.66-1.75,1.53,1.53,0,0,1,1.56.12,1.86,1.86,0,0,1,.58,1.55,7.39,7.39,0,0,1-1.48,3.36l-.28-.33a3.08,3.08,0,0,1,2.76.2C300.73,246.74,300.91,247.1,300.88,247.12Z" style="fill:#ff9a6c"></path><path d="M297.85,237a4.6,4.6,0,0,1-1.91-.08c-1.18-.14-2.77-.52-4.52-.8s-3.37-.52-4.53-.67a8.08,8.08,0,0,1-1.89-.31c0-.16,2.95-.14,6.5.47,1.79.28,3.35.71,4.5.95A11.74,11.74,0,0,1,297.85,237Z" style="fill:#ff9a6c"></path><path d="M304,243.43a5.34,5.34,0,0,1-1.51-1.77,10.68,10.68,0,0,1-1.69-5.37,4,4,0,0,1,.33-1.65,2.61,2.61,0,0,1,.44-.69l.22-.25v0h0a.28.28,0,0,0,0,.08.21.21,0,0,0,.09.11c.12,0,.08,0,.07,0h-.08a.5.5,0,0,1-.33,0,.27.27,0,0,1-.08-.07h0l0,0-.06-.06-.21-.27-.41-.51c-.26-.34-.49-.66-.68-1a5.83,5.83,0,0,1-1-2.1c.08,0,.46.76,1.31,1.89q.31.42.72.9l.42.49.22.25.06.06,0,0h0l-.13.12h0s0-.22,0-.16h.06l.1,0a.35.35,0,0,1,.24,0,.28.28,0,0,1,.12.14.31.31,0,0,1,0,.13.28.28,0,0,1,0,.09.61.61,0,0,1-.07.14c-.11.16-.18.21-.25.31a2.58,2.58,0,0,0-.36.58,3.78,3.78,0,0,0-.27,1.45,11.6,11.6,0,0,0,1.49,5.18C303.53,242.71,304.11,243.38,304,243.43Z" style="fill:#ff9a6c"></path><polygon points="312.91 253.09 309.89 251.89 313 237.88 316.02 238.41 312.91 253.09" style="fill:#fafafa"></polygon><polygon points="394.1 192.34 395.69 187.85 406.1 196.38 419.32 186.41 421.16 190.23 427.65 193.88 417.58 218.75 405.49 235.2 396.88 238.06 389.36 215.03 391.37 195.56 394.1 192.34" style="fill:#fafafa"></polygon><path d="M379.83,292.64l13,8.88,8.6-10.82,12.25,10.82,14.86-10.82-3.39-92.1-2.87-4.72s-5.21,24.41-20.59,39.4c0,0-11.2-14.15-11.73-28.58l-5.47.28L383,272.39Z" style="fill:#B8241C"></path><g style="opacity:0.30000000000000004"><path d="M379.83,292.64l13,8.88,8.6-10.82,12.25,10.82,14.86-10.82-3.39-92.1-2.87-4.72s-5.21,24.41-20.59,39.4c0,0-11.2-14.15-11.73-28.58l-5.47.28L383,272.39Z"></path></g><path d="M401.21,202l2.61,3.57h3.63L410,202l-3.87-5.58A34.81,34.81,0,0,1,401.21,202Z" style="fill:#B8241C"></path><path d="M394.16,191.66c-1.3.56-25.54,8.33-25.54,8.33l4.49,65.29-8.64,49.2s6.76,4,12.88-.2,10.82-36.62,10.82-36.62,2.08-45.49,2.08-46.33S394.16,191.66,394.16,191.66Z" style="fill:#B8241C"></path><path d="M445.55,200s-24-10.52-23.76-9.68-2.87,49.65-2.87,49.65.06,19,1.36,25.66S430,319.32,430,319.32l21-3.14S437,263.33,437,262.5c0-.36,3.4-26.47,3.4-26.47C441.9,218.58,445.55,200,445.55,200Z" style="fill:#B8241C"></path><path d="M398.59,228.74c-.15-.22,1.13-8.83,1.6-11.21s3.63-12,3.63-12h3.63s1,9.88,1.05,13.87a29.49,29.49,0,0,1-.48,6.81,64.62,64.62,0,0,1-6.3,7.06A31.81,31.81,0,0,1,398.59,228.74Z" style="fill:#B8241C"></path><path d="M373.28,262.5c-.14,0-1.19-12.44-2.35-27.8s-2-27.82-1.82-27.83,1.19,12.43,2.34,27.8S373.42,262.49,373.28,262.5Z" style="fill:#263238"></path><path d="M401.56,233.4c.14,0,.26,12.57.26,28.07s-.12,28.08-.26,28.08-.26-12.57-.26-28.08S401.41,233.4,401.56,233.4Z" style="fill:#263238"></path><path d="M421,190.68a11.45,11.45,0,0,1-1,1.37l-2.92,3.58c-1.24,1.5-2.73,3.29-4.42,5.24-.42.49-.85,1-1.32,1.49l-.19.19-.11.1,0,0-.17.07c-.4,0-.48-.19-.65-.29a7.79,7.79,0,0,1-.74-.79,43.67,43.67,0,0,1-2.53-3.57l-1-1.6h.44a19.23,19.23,0,0,1-6.1,6.17l-.17.09-.12-.16a72.91,72.91,0,0,1-4.28-6.77c-.47-.85-.82-1.52-1.05-2a3.38,3.38,0,0,1-.32-.73,3.87,3.87,0,0,1,.44.66l1.16,1.93c1,1.64,2.47,4,4.42,6.64l-.3-.07a19.33,19.33,0,0,0,5.89-6.06l.22-.33.22.34,1,1.59a42.12,42.12,0,0,0,2.49,3.52,6,6,0,0,0,.67.74l.18.13.06,0h0s0,.11,0,.09h0s.07.09-.06-.09l0,0,.08-.08A.91.91,0,0,0,411,202c.46-.48.89-1,1.32-1.46l4.5-5.16,3-3.47A10.05,10.05,0,0,1,421,190.68Z" style="fill:#263238"></path><path d="M406.91,205.44c0,.14-.7.26-1.57.27s-1.58-.1-1.58-.24.7-.27,1.57-.28S406.91,205.29,406.91,205.44Z" style="fill:#263238"></path><path d="M407.84,199.38a14.81,14.81,0,0,1-2.43,2.25,13.83,13.83,0,0,1-2.6,2.06,8.88,8.88,0,0,1,2.26-2.45A8.45,8.45,0,0,1,407.84,199.38Z" style="fill:#263238"></path><path d="M387.31,257.25a2.49,2.49,0,0,1-.19-.63c-.12-.47-.26-1.08-.45-1.84-.37-1.66-.89-3.95-1.53-6.76s-1.38-6.28-2.21-10.05a54.48,54.48,0,0,1-1.74-12.5,70.29,70.29,0,0,1,1.46-12.54c.74-3.81,1.39-7.24,2.17-10.07a34.25,34.25,0,0,1,2.43-6.52c.38-.73.7-1.28.93-1.64a3.56,3.56,0,0,1,.38-.54,2.7,2.7,0,0,1-.28.59c-.21.38-.5.94-.84,1.68a36.06,36.06,0,0,0-2.26,6.52c-.73,2.83-1.35,6.26-2.06,10.07a73,73,0,0,0-1.41,12.45,55.42,55.42,0,0,0,1.69,12.4l2.1,10.07c.57,2.83,1,5.13,1.37,6.8.15.76.26,1.38.35,1.86A5.06,5.06,0,0,1,387.31,257.25Z" style="fill:#263238"></path><path d="M429.48,195.66a3.88,3.88,0,0,1,.1.62c.05.47.11,1.07.18,1.81s.17,1.74.22,2.86.16,2.39.17,3.8c.09,2.81.05,6.17-.15,9.89s-.64,7.81-1.31,12.06-1.59,8.25-2.53,11.86-2,6.8-3,9.44c-.45,1.34-.94,2.52-1.35,3.56s-.78,1.93-1.1,2.65-.55,1.22-.75,1.65a2.19,2.19,0,0,1-.29.56,2.64,2.64,0,0,1,.2-.6c.17-.44.38-1,.65-1.69s.65-1.62,1-2.68.84-2.23,1.27-3.57c.93-2.65,1.89-5.86,2.84-9.45s1.79-7.59,2.48-11.82,1.09-8.29,1.35-12,.31-7.05.26-9.86c0-1.4-.06-2.67-.09-3.79s-.08-2.07-.13-2.86-.06-1.34-.09-1.81A2.78,2.78,0,0,1,429.48,195.66Z" style="fill:#263238"></path><polygon points="432.2 291.67 434.95 299.22 447.59 296.56 443.51 289.55 432.2 291.67" style="fill:#B8241C"></polygon><path d="M443.09,289.63a3,3,0,0,1-.8.23l-2.24.5c-1.92.4-4.64.94-7.8,1.55l.18-.32c.53,1.44,1.11,3,1.7,4.63l1.06,2.91-.3-.16c3.61-.75,6.78-1.38,9.05-1.81l2.67-.48a4,4,0,0,1,1-.12,4.25,4.25,0,0,1-.94.29l-2.64.64c-2.25.51-5.41,1.21-9,2l-.22,0-.07-.21c-.35-.94-.7-1.91-1.07-2.9-.58-1.63-1.15-3.2-1.67-4.65l-.1-.27.28-.05c3.17-.58,5.9-1.06,7.84-1.38l2.27-.35A3.22,3.22,0,0,1,443.09,289.63Z" style="fill:#263238"></path><path d="M316.22,237.49c3.61.31,26.47,1.76,26.47,1.76l14.2-14.85a8.14,8.14,0,0,1,1.83-4.72c1.82-2.22,7.56-18.58,9.9-19.69s2.53,41,2.53,41S352.6,258.24,349,259.62s-36.21-5.72-36.21-5.72Z" style="fill:#B8241C"></path><path d="M346.75,251.21c-.15,0-.76-2.43-1.81-5.38s-2.1-5.25-2-5.32a27.14,27.14,0,0,1,3.77,10.7Z" style="fill:#263238"></path><path d="M364.73,234.39c-.15.06-1.08-2.15-2.77-4.54s-3.44-4-3.33-4.14a13,13,0,0,1,3.75,3.84A13.18,13.18,0,0,1,364.73,234.39Z" style="fill:#263238"></path><path d="M381.6,241.12s-2,1-.17,3.65a21.22,21.22,0,0,0,3.72,4.19l-5.15.56s-9.52-.81-10.73.66a2.21,2.21,0,0,0-.39,2.67,1.93,1.93,0,0,0,.61,2.47,10.46,10.46,0,0,0,3.57,1.29,3.39,3.39,0,0,0,2.47,1.6,4,4,0,0,0,3.89,3,3,3,0,0,0,2.84,3.27c3.09.22,9.36,1.11,11.73.61s7.09.15,7.09.15l.48-10.19-4.32.19s-.44-2.83-3.7-6.29C391.56,246.88,384.24,240.72,381.6,241.12Z" style="fill:#ffbf9d"></path><polygon points="400.61 253.36 397.37 253.25 395.92 267.73 400.06 267.94 400.61 253.36" style="fill:#fafafa"></polygon><path d="M445.55,200s7.84,1.58,6.88,17.83c-.39,6.64-4.43,47.12-9.75,49.39s-44.11,2.64-44.11,2.64l1.15-18.72,30.28-3,6.84-26.82Z" style="fill:#B8241C"></path><path d="M443.26,266.94s-.13.09-.4.21a11.61,11.61,0,0,1-1.2.46,30.11,30.11,0,0,1-4.62,1,135.38,135.38,0,0,1-15.5,1.25c-6.07.21-11.57.22-15.54.2l-4.71-.07a10.44,10.44,0,0,1-1.73-.1,10.44,10.44,0,0,1,1.73-.1l4.71-.1c4-.07,9.46-.15,15.52-.35s11.54-.55,15.47-1.09a39.67,39.67,0,0,0,4.61-.84C442.66,267.12,443.24,266.9,443.26,266.94Z" style="fill:#263238"></path><path d="M438.23,252.52a3.47,3.47,0,0,1-.15-.69,3.26,3.26,0,0,0-1.12-1.59c-1.33-1.11-3.88-1.83-7-2h0l-19.39,2-10.88,1.07.21-.23c-.37,5.44-.69,10.1-.92,13.47-.12,1.6-.23,2.9-.3,3.86,0,.41-.08.74-.1,1s-.05.36-.07.36a1.27,1.27,0,0,1,0-.36c0-.28,0-.62,0-1,0-1,.1-2.26.17-3.87.18-3.37.44-8,.73-13.48v-.2l.21,0,10.88-1.11,19.4-1.88h0c3.15.2,5.72,1,7.1,2.2a3.3,3.3,0,0,1,1.08,1.74A2.93,2.93,0,0,1,438.23,252.52Z" style="fill:#263238"></path><path d="M436,217.88c.14,0-1.05,6.73-2.65,15s-3,14.89-3.16,14.86,1.05-6.72,2.65-15S435.84,217.86,436,217.88Z" style="fill:#263238"></path></g><g id="freepik--character-1--inject-117"><rect x="109.9" y="364.24" width="126.2" height="26.93" rx="8.94" style="fill:#B8241C"></rect><path d="M197.94,348.87h43.53a9.79,9.79,0,0,1,9.79,9.79V451.5a0,0,0,0,1,0,0H197.94a0,0,0,0,1,0,0V348.87A0,0,0,0,1,197.94,348.87Z" style="fill:#B8241C"></path><path d="M115.16,292.76h84.24a13.11,13.11,0,0,1,13.11,13.11v58.36a0,0,0,0,1,0,0H115.16a0,0,0,0,1,0,0V292.76A0,0,0,0,1,115.16,292.76Z" style="fill:#B8241C"></path><path d="M83,292.76H183.21a0,0,0,0,1,0,0v71.48a0,0,0,0,1,0,0H70.92a0,0,0,0,1,0,0v-59.4A12.08,12.08,0,0,1,83,292.76Z" style="fill:#B8241C"></path><polygon points="232.3 451.96 123.37 452.49 123.37 389.73 232.3 389.73 232.3 451.96" style="fill:#B8241C"></polygon><g style="opacity:0.30000000000000004"><path d="M83,292.76h15.6a0,0,0,0,1,0,0v71.48a0,0,0,0,1,0,0H70.92a0,0,0,0,1,0,0v-59.4A12.08,12.08,0,0,1,83,292.76Z"></path></g><path d="M201.88,401.17c0,.15-15.43.26-34.45.26s-34.45-.11-34.45-.26,15.42-.26,34.45-.26S201.88,401,201.88,401.17Z" style="fill:#263238"></path><path d="M248.3,382.87,260,398.54s19.87-6.67,22.32-4L252.79,418.4,233.5,394.74Z" style="fill:#263238"></path><path d="M249.86,404.63a1.54,1.54,0,0,0,.28,2.05,1.49,1.49,0,0,0,2-.26,1.64,1.64,0,0,0-.3-2.17,1.55,1.55,0,0,0-2.09.5" style="fill:#e0e0e0"></path><path d="M252.79,418.4l-1.85-2.46L280,394s1.78-.49,2.38.56Z" style="fill:#455a64"></path><path d="M260.39,398c.11.15-.56.8-.89,1.83s-.23,1.95-.41,2-.63-1-.2-2.2S260.32,397.84,260.39,398Z" style="fill:#fff"></path><path d="M264.53,396.78c.14.11-.29.86-.28,1.87s.38,1.77.23,1.88-.9-.64-.88-1.89S264.41,396.65,264.53,396.78Z" style="fill:#fff"></path><path d="M269.28,399.07c-.11.14-.89-.42-1.16-1.51s.16-1.95.32-1.88.08.83.31,1.72S269.41,398.94,269.28,399.07Z" style="fill:#fff"></path><path d="M257.32,394.73c.05.18-.78.51-1.55,1.22s-1.2,1.49-1.37,1.43,0-1.08.94-1.9S257.3,394.56,257.32,394.73Z" style="fill:#fff"></path><path d="M221.94,436.29l-.75,19.56s19.64,7.32,19.85,10.95l-38-.08L203,436.19Z" style="fill:#263238"></path><path d="M209.45,454.18a1.54,1.54,0,0,0-1.07,1.76,1.49,1.49,0,0,0,1.74,1.09,1.64,1.64,0,0,0,1.13-1.88,1.56,1.56,0,0,0-1.94-.93" style="fill:#e0e0e0"></path><path d="M203.06,466.72l.11-3.08,36.38,1.23s1.68.74,1.49,1.93Z" style="fill:#455a64"></path><path d="M221.81,455.66c0,.18-.93.26-1.85.86s-1.4,1.37-1.57,1.3.11-1.15,1.23-1.85S221.85,455.49,221.81,455.66Z" style="fill:#fff"></path><path d="M225.79,457.31c0,.18-.76.49-1.39,1.28s-.82,1.61-1,1.6-.3-1.06.5-2S225.79,457.13,225.79,457.31Z" style="fill:#fff"></path><path d="M228,462.08c-.17,0-.42-.88.06-1.9s1.34-1.42,1.42-1.26-.46.69-.84,1.53S228.23,462.07,228,462.08Z" style="fill:#fff"></path><path d="M221.48,451.18c-.07.17-.92-.09-2,0s-1.87.4-2,.24.7-.82,1.93-.89S221.58,451,221.48,451.18Z" style="fill:#fff"></path><path d="M144.75,350.51c.5-.16,17.78-7.74,32-13.58,9.45-3.89,17.87-6.89,17.87-6.89s13-7.37,18.52.26,49.06,60.73,48.78,61.55-18.85,17.32-18.85,17.32-40.05-51-40.87-50.71-19.33,14.77-19.33,14.77-5.56,5.74-9.67,6.29-28.11-1.36-28.11-1.36L136,353.52Z" style="fill:#263238"></path><path d="M165.17,372c.86.57,10,7,10,7l20.64,4.77L200,451.5l24.67-.88s0-48.88,0-60.33-.28-22-3.72-25.75-18.79-6.08-18.79-6.08Z" style="fill:#263238"></path><path d="M224.67,387.66a4.44,4.44,0,0,1,0-.8c0-.57,0-1.34,0-2.3,0-2-.09-4.89-.33-8.44-.13-1.78-.31-3.73-.65-5.79q-.15-.76-.3-1.56c-.14-.52-.25-1.06-.42-1.58a6.13,6.13,0,0,0-1.64-2.84,21,21,0,0,0-6.5-3.25,77.62,77.62,0,0,0-7.65-2.09c-1.39-.31-2.77-.59-4.07-.82l.2-.05-19.79,15.47-5.93,4.57-1.61,1.21a4.86,4.86,0,0,1-.58.4,2.82,2.82,0,0,1,.52-.48l1.56-1.28,5.83-4.69,19.68-15.61.09-.07.12,0c1.31.23,2.7.51,4.09.82a72.74,72.74,0,0,1,7.7,2.12,21,21,0,0,1,6.66,3.38,6.67,6.67,0,0,1,1.76,3.05c.17.55.28,1.09.42,1.62l.29,1.59c.32,2.09.48,4.05.59,5.83.2,3.58.19,6.47.16,8.47,0,1-.05,1.78-.07,2.3A4.5,4.5,0,0,1,224.67,387.66Z" style="fill:#455a64"></path><path d="M203,326.89a4.08,4.08,0,0,1-.54.23l-1.58.59c-1.37.5-3.36,1.23-5.8,2.15-4.9,1.84-11.61,4.5-19,7.58l-18.83,7.94-5.73,2.36-1.57.61a2,2,0,0,1-.56.18,3.12,3.12,0,0,1,.52-.28l1.53-.7L157.1,345c4.79-2.11,11.41-5,18.78-8.08s14.11-5.7,19-7.44c2.46-.88,4.47-1.56,5.87-2l1.61-.5A2.37,2.37,0,0,1,203,326.89Z" style="fill:#455a64"></path><path d="M171.47,229.75a4,4,0,0,0,1.13-7.87,4.16,4.16,0,0,0-4.11-6.73,5,5,0,0,0-7.77-3.53,5.59,5.59,0,0,0-6.88.35,4,4,0,0,0-3,7" style="fill:#263238"></path><path d="M153.26,216l.87-.06a17,17,0,0,1,18,14.37c1.24,8.13,2.49,17.12,2.75,21.51.52,9.08-8.46,11.13-8.46,11.13l1.53,10.85-22.07.86-4.73-39.41C139.63,225.84,143.85,217.18,153.26,216Z" style="fill:#ae7461"></path><path d="M166.38,262.91a22,22,0,0,1-12.07-2.66s3.39,6.48,12.39,5Z" style="fill:#6f4439"></path><path d="M169.36,239.42a1.29,1.29,0,0,1-1.15,1.39,1.24,1.24,0,0,1-1.42-1.07,1.3,1.3,0,0,1,1.16-1.4A1.23,1.23,0,0,1,169.36,239.42Z" style="fill:#263238"></path><path d="M170.44,234.85c-.14.18-1.18-.48-2.57-.38s-2.37.88-2.53.71.06-.38.48-.74a3.62,3.62,0,0,1,2-.78,3.53,3.53,0,0,1,2.07.51C170.35,234.47,170.52,234.77,170.44,234.85Z" style="fill:#263238"></path><path d="M156.78,240.13a1.3,1.3,0,0,1-1.16,1.39,1.24,1.24,0,0,1-1.42-1.07,1.31,1.31,0,0,1,1.16-1.4A1.25,1.25,0,0,1,156.78,240.13Z" style="fill:#263238"></path><path d="M156.75,236.07c-.15.18-1.18-.48-2.58-.37s-2.36.87-2.53.71.06-.39.49-.75a3.54,3.54,0,0,1,2-.77,3.41,3.41,0,0,1,2.07.51C156.66,235.7,156.82,236,156.75,236.07Z" style="fill:#263238"></path><path d="M162.54,246.06a9.17,9.17,0,0,1,2.24-.57c.35-.06.68-.15.72-.4a1.8,1.8,0,0,0-.31-1L164,241.41c-1.73-3.76-3-6.86-2.86-6.93a47.81,47.81,0,0,1,3.41,6.69l1.2,2.65a2.07,2.07,0,0,1,.28,1.39.88.88,0,0,1-.55.56,2.54,2.54,0,0,1-.59.13A9.22,9.22,0,0,1,162.54,246.06Z" style="fill:#263238"></path><path d="M157.59,230.62c-.16.37-1.39.07-2.86.12s-2.7.39-2.86,0c-.07-.17.17-.51.68-.83a4.5,4.5,0,0,1,2.18-.62,4.29,4.29,0,0,1,2.17.51C157.41,230.12,157.65,230.45,157.59,230.62Z" style="fill:#263238"></path><path d="M170.11,229.09c-.27.34-1.45.09-2.83.17s-2.54.4-2.84.08c-.13-.15,0-.48.53-.81a4.42,4.42,0,0,1,2.26-.68,4.36,4.36,0,0,1,2.3.47C170,228.62,170.23,228.93,170.11,229.09Z" style="fill:#263238"></path><path d="M170.92,226.17s-2.79-5.52-5.63-6.65c-3.43-1.37-4.6,2.37-7.83,1.71s-6.5-2-9.56.69c-3.35,2.92-1.56,4.68-1.49,8.72.26,16.4-2.4,21.22-3.79,13.59-.15-.84-2.54-1.34-3.13-4.88-.78-4.58-1.35-10.18-.55-13.52.68-2.83,2.12-4.84,4.79-7.15,4.23-3.63,10.35-4.13,14.53-4S170.8,219,170.92,226.17Z" style="fill:#263238"></path><path d="M143.18,243.94a2.46,2.46,0,0,0-2.83-2.18c-1.68.27-3.49,1.37-3.14,4.86.64,6.19,6.72,4.28,6.72,4.1S143.47,246.53,143.18,243.94Z" style="fill:#ae7461"></path><path d="M142.34,248.53s-.1.08-.27.19a1.14,1.14,0,0,1-.81.09,2.68,2.68,0,0,1-1.48-2.26,3.56,3.56,0,0,1,.15-1.58,1.25,1.25,0,0,1,.72-.91.55.55,0,0,1,.67.23c.1.17.07.29.11.3s.12-.12,0-.37a.62.62,0,0,0-.28-.36.79.79,0,0,0-.61-.1,1.52,1.52,0,0,0-1,1.08,3.63,3.63,0,0,0-.2,1.76,2.8,2.8,0,0,0,1.85,2.51,1.14,1.14,0,0,0,1-.26C142.34,248.68,142.36,248.54,142.34,248.53Z" style="fill:#6f4439"></path><path d="M142.46,231.91a6,6,0,0,0,2.71,1,2,2,0,0,0,2.15-1.58c0-.44-.1-.93.16-1.29s1-.34,1.47-.32c1.82.07,3.79-2.07,4.12-3.86a1.63,1.63,0,0,0,2.2.3,6,6,0,0,0,1.4-1.44,2.56,2.56,0,0,1,2.06-1.21,6.48,6.48,0,0,0,1.37.2c.81-.13,1.14-1.11,1.2-1.93s.1-1.77.76-2.26a3.25,3.25,0,0,1,2.21-.21c.76.06,1.72-.19,1.86-.94a1.47,1.47,0,0,0-.36-1.1,4,4,0,0,0-4.85-1.19,5.45,5.45,0,0,0-10.08-.35,5.54,5.54,0,0,0-8.7,2.63,4,4,0,0,0-4.11,6.15,3.82,3.82,0,0,0-1.88,3.17,2.19,2.19,0,0,0,2.63,2.06,2.22,2.22,0,0,0,4,1.94" style="fill:#263238"></path><path d="M161.51,217.9s0,0,0,.12,0,.18,0,.33a3.92,3.92,0,0,1-.37,1.23,4.31,4.31,0,0,1-1.27,1.56,4.1,4.1,0,0,1-2.49.9l.1-.14a2.23,2.23,0,0,1,0,1.72,6.56,6.56,0,0,1-1,1.6,4.53,4.53,0,0,1-.65.76,2.11,2.11,0,0,1-1,.44,2.27,2.27,0,0,1-2-.58l.22-.08a4.67,4.67,0,0,1-1.74,3.36,3.4,3.4,0,0,1-2,.81,6.16,6.16,0,0,1-2-.3l.16-.09a4.88,4.88,0,0,1-1.34,2,2.6,2.6,0,0,1-2.12.74,3.41,3.41,0,0,1-2.82-2.49l.15.06a3.23,3.23,0,0,1-2.11.46,3.45,3.45,0,0,1-1.54-.56,3,3,0,0,1-.74-.71,1.09,1.09,0,0,1-.18-.31,3.56,3.56,0,0,0,1,.93,3.31,3.31,0,0,0,1.49.5,3,3,0,0,0,2-.47l.11-.07,0,.12a3.22,3.22,0,0,0,2.66,2.31,2.36,2.36,0,0,0,1.92-.7,4.6,4.6,0,0,0,1.26-1.91l0-.12.12,0a6.1,6.1,0,0,0,2,.28,3.18,3.18,0,0,0,1.84-.75,4.42,4.42,0,0,0,1.65-3.17l0-.3.21.22a2,2,0,0,0,1.81.51,1.9,1.9,0,0,0,.84-.38,4.65,4.65,0,0,0,.61-.71,6,6,0,0,0,.94-1.54,2.11,2.11,0,0,0,0-1.56l-.07-.14h.16a4,4,0,0,0,2.39-.83,4.34,4.34,0,0,0,1.27-1.48A4.65,4.65,0,0,0,161.51,217.9Z" style="fill:#455a64"></path><path d="M163.12,250.49c-.05-.23-1.55.19-3-.79s-1.72-2.63-1.93-2.58-.19.44,0,1.12a3.94,3.94,0,0,0,1.53,2.18,3.36,3.36,0,0,0,2.48.56C162.84,250.86,163.16,250.59,163.12,250.49Z" style="fill:#263238"></path><path d="M208.65,265.21l-.63,11-.73,2s.51,5.88.78,7.1,3.55,7,3.55,7l-1.93,6.52,10.64,1s1.2-5.81,1.76-6.58a6.38,6.38,0,0,0,.5-3.73c-.14-1.17-.53-8.17-.53-8.17s2.24-8.46.36-8.34l-.16,0a1.79,1.79,0,0,0-1.4,1.37c-.4,1.6-1.19,4.59-1.67,4.8l-1.12-.29s0-7.89-.31-9.29-.83-2.28-1.93-2.15c0,0-.7.54-.68.91s.29,9.1-.2,9.07-.49-.83-.49-.83-.08-10.66-.37-11.19a1.62,1.62,0,0,0-2-.92l-.52,6s-.32-4.84-1.29-5.46A1.35,1.35,0,0,0,208.65,265.21Z" style="fill:#ae7461"></path><path d="M216.86,286.91c-.08,0-.26-.85-1-2.12a8.91,8.91,0,0,0-4.27-3.8l-.16-.07v-.16c0-.78-.07-1.59-.11-2.42v-.06l0,0c.1-.28.2-.61.28-.93a9.18,9.18,0,0,0,.3-3.21,3.18,3.18,0,0,0-.39-1.35,1,1,0,0,0-.94-.54l.15-.1c-.85,1.41-1.56,2.59-2.07,3.4a6.82,6.82,0,0,1-.86,1.24,6.15,6.15,0,0,1,.64-1.37c.44-.85,1.1-2.05,1.9-3.5l.06-.09h.09a1.44,1.44,0,0,1,1.43.71,3.71,3.71,0,0,1,.49,1.56,9.39,9.39,0,0,1-.29,3.39q-.14.51-.3,1v-.11q0,1.26.09,2.43l-.17-.23a8.69,8.69,0,0,1,4.38,4.13,7.24,7.24,0,0,1,.6,1.65C216.86,286.69,216.89,286.91,216.86,286.91Z" style="fill:#6f4439"></path><path d="M214.6,278.77a7.27,7.27,0,0,1,3.43.49,7.06,7.06,0,0,1,3.05,1.61,28.35,28.35,0,0,1-3.22-1.11A28.16,28.16,0,0,1,214.6,278.77Z" style="fill:#6f4439"></path><polygon points="142.36 269.15 144.22 262.63 163.28 271.2 167.12 266.19 167.51 267.74 184.07 295.95 194.62 330.04 149.39 348.53 144.46 320.7 142.36 269.15" style="fill:#fafafa"></polygon><path d="M180,326.31a2.19,2.19,0,0,1-.12-.56c-.07-.43-.16-1-.26-1.61-.21-1.4-.54-3.42-1-5.91A168.68,168.68,0,0,0,174,299a170.25,170.25,0,0,0-7-18.49c-1-2.31-1.9-4.16-2.52-5.44l-.69-1.47a2.28,2.28,0,0,1-.21-.53,2.65,2.65,0,0,1,.3.48c.21.38.47.85.78,1.43.68,1.25,1.6,3.08,2.67,5.38A145.54,145.54,0,0,1,179,318.16c.41,2.51.68,4.54.83,5.95.06.66.12,1.2.16,1.63A2.26,2.26,0,0,1,180,326.31Z" style="fill:#263238"></path><path d="M169.74,272.85a4.52,4.52,0,0,1-.58.81l-1.72,2.13-.1.13-.14-.12-4.15-3.68.38-.11c-.46,1.63-1,3.42-1.51,5.3l-.09.3-.27-.14-1.21-.6c-4-2-7.59-3.79-10.19-5.12l-3.06-1.61a5.91,5.91,0,0,1-1.09-.65,6.81,6.81,0,0,1,1.18.47l3.13,1.46c2.64,1.25,6.27,3,10.26,5l1.21.59-.37.16,1.56-5.28.11-.37.28.26,4.06,3.79h-.24l1.84-2A3.84,3.84,0,0,1,169.74,272.85Z" style="fill:#263238"></path><g style="opacity:0.30000000000000004"><path d="M145.08,378.16l4.31.33,6.24-32.62s-6.8,4.14-7,4.66S145.08,378.16,145.08,378.16Z"></path></g><path d="M143.5,264.56l-1.79,4.72-12.59,8.25,4.69,52.77s-9.07,25.74-9.07,37.13,2.53,16.88,5.48,18.36,14.35-4,14.35-4,1.22-6.72,7.84-21.94S166.08,328,166.08,328s2.11-8.23-2.74-23.2S143.5,264.56,143.5,264.56Z" style="fill:#455a64"></path><path d="M208.72,296c-.42.63-6.71,11.54-6.71,11.54s-14.18-33.83-19.15-34.36c-5.15-.54-1.38,15.19-1.38,15.19l12.37,37.74s8.69,2.69,13.54-.48,15.78-25,15.78-25Z" style="fill:#455a64"></path><path d="M167.5,267.5s11.94,23.3,15.36,35.65c2.24,8.09,6,28.86,6,28.86l9.11-3.18-8.23-27.22-6.85-28.48L172.24,271Z" style="fill:#455a64"></path><path d="M164,325.68a2.65,2.65,0,0,1-.35-.49c-.24-.39-.55-.87-.93-1.47l-3.31-5.45c-2.79-4.68-6.59-11-10.78-18.08-2.08-3.55-4.12-6.88-5.82-10a32.19,32.19,0,0,1-3.41-8.85,17.65,17.65,0,0,1-.2-6.39,13.24,13.24,0,0,1,.4-1.7,3,3,0,0,1,.21-.56c.06,0-.22.8-.41,2.29a18.83,18.83,0,0,0,.36,6.29,32.7,32.7,0,0,0,3.48,8.7c1.7,3.1,3.76,6.44,5.84,10l10.64,18.15,3.18,5.54.84,1.51A2.12,2.12,0,0,1,164,325.68Z" style="fill:#263238"></path><path d="M186.67,280.47a3.32,3.32,0,0,1,.2.47c.14.37.3.82.5,1.36.41,1.19.95,2.94,1.56,5.11a175.46,175.46,0,0,1,3.65,17.21c.55,3.39,1.09,6.61,1.57,9.56.24,1.46.48,2.85.69,4.16a29.65,29.65,0,0,0,.89,3.55c.68,2.13,1.31,3.85,1.69,5.05.19.6.33,1.07.42,1.39a1.81,1.81,0,0,1,.1.5,1.77,1.77,0,0,1-.2-.47c-.14-.37-.31-.81-.51-1.36-.44-1.18-1.12-2.86-1.85-5a28.36,28.36,0,0,1-1-3.58c-.23-1.31-.48-2.7-.74-4.16-.5-2.94-1-6.17-1.62-9.55-1.13-6.77-2.37-12.85-3.48-17.21-.57-2.18-1.06-3.93-1.41-5.14l-.4-1.39A1.81,1.81,0,0,1,186.67,280.47Z" style="fill:#263238"></path><path d="M172.24,271a2,2,0,0,1,.48.24,14.82,14.82,0,0,1,1.27.88,33.17,33.17,0,0,1,4.1,3.9c.8.89,1.66,1.88,2.5,3s1.63,2.42,2.44,3.77a51.82,51.82,0,0,1,4.38,9.31,47.4,47.4,0,0,1,2.53,10,33.7,33.7,0,0,1,0,8.4,39.6,39.6,0,0,1-1.07,5.56c-.17.64-.32,1.14-.43,1.47a2.22,2.22,0,0,1-.19.51,1.73,1.73,0,0,1,.09-.53c.09-.4.2-.9.34-1.5a49.86,49.86,0,0,0,.89-5.55,34.85,34.85,0,0,0-.13-8.3,49.67,49.67,0,0,0-2.55-9.86,53,53,0,0,0-4.31-9.23c-.79-1.36-1.56-2.64-2.37-3.77s-1.64-2.13-2.42-3a38.77,38.77,0,0,0-4-4C172.85,271.45,172.21,271.07,172.24,271Z" style="fill:#263238"></path><path d="M143.87,357a1.77,1.77,0,0,1,.19.55,15,15,0,0,1,.33,1.61,21.71,21.71,0,0,1,.09,5.89l0,.23-.23,0a80.79,80.79,0,0,0-19.26-1l-.48,0,.28-.37,3.43-4.53a12.68,12.68,0,0,1,1.37-1.65,16,16,0,0,1-1.17,1.8l-3.28,4.63-.19-.34a70.76,70.76,0,0,1,19.37,1l-.25.18a24.35,24.35,0,0,0,.09-5.8C144,357.76,143.82,357,143.87,357Z" style="fill:#263238"></path><path d="M129.12,277.53s-8.83,5.89-10,12.63c-1.58,9.07,1.55,40.86,2.38,48.09s5.57,13.62,10.52,14,44.17-13.83,44.17-13.83L172.26,324l-28.48,5.78-2.89-33.43Z" style="fill:#455a64"></path><path d="M173.57,327.94a65.33,65.33,0,0,1,14.68-.62c6.89.67,8,2.27,8,2.27L175.7,337.9Z" style="fill:#ae7461"></path><path d="M141.26,300.61l2.52,29.17L172.26,324l3.92,14.45s-30,11.85-34.18,12.38-15.61,2.66-18.06-5" style="fill:#455a64"></path><path d="M123.94,345.87a1.24,1.24,0,0,1,.13.25l.35.76a7.13,7.13,0,0,0,2,2.43,10.31,10.31,0,0,0,4.7,1.81,27.42,27.42,0,0,0,6.8,0c1.26-.12,2.58-.32,4-.5a35.42,35.42,0,0,0,4.15-1.17c2.86-1,5.89-2.05,9.09-3.23,6.4-2.38,13.45-5.1,20.91-8l-.16.31-2.16-8c-.6-2.19-1.19-4.36-1.76-6.48l.3.19L143.82,330l-.24.05,0-.25c-.72-8.77-1.32-16.06-1.74-21.19-.19-2.53-.34-4.52-.45-5.91,0-.66-.08-1.18-.1-1.56a2.12,2.12,0,0,1,0-.53,4.49,4.49,0,0,1,.07.53c0,.38.1.89.17,1.55.14,1.39.33,3.38.57,5.9.47,5.12,1.13,12.4,1.92,21.18l-.26-.2,28.48-5.82.24-.05.06.24c.58,2.12,1.16,4.28,1.76,6.47l2.16,8,.06.23-.21.08c-7.47,2.93-14.53,5.64-20.94,8-3.21,1.17-6.25,2.25-9.12,3.19A34.77,34.77,0,0,1,142,351c-1.38.17-2.7.36-4,.47a26.76,26.76,0,0,1-6.87-.11,10.25,10.25,0,0,1-4.78-1.92,7,7,0,0,1-2-2.53l-.31-.79A1,1,0,0,1,123.94,345.87Z" style="fill:#263238"></path><path d="M123.87,283.42a7.26,7.26,0,0,1,2.54,0,15.34,15.34,0,0,1,10.34,6.15,7.05,7.05,0,0,1,1.22,2.23c-.08.05-.54-.8-1.51-2a17.13,17.13,0,0,0-4.52-3.91,17.44,17.44,0,0,0-5.59-2.11C124.83,283.51,123.87,283.51,123.87,283.42Z" style="fill:#263238"></path><path d="M141.19,452.49H70.92V348.87h65.43a4.52,4.52,0,0,1,4.52,4.52Z" style="fill:#B8241C"></path><g style="opacity:0.30000000000000004"><polygon points="111.73 452.49 70.92 452.49 70.92 348.87 111.51 349.02 111.73 452.49"></polygon></g><path d="M141.19,452a2.19,2.19,0,0,1,0-.45q0-.47,0-1.29c0-1.17,0-2.85,0-5,0-4.36-.05-10.62-.08-18.34,0-15.51,0-36.89-.08-60.51,0-3.87,0-7.68-.09-11.39l0-1.39a6.91,6.91,0,0,0-.2-1.3,3.84,3.84,0,0,0-1.39-2.1,7.43,7.43,0,0,0-4.92-1.07h0L88.89,349,75.68,349l-3.53,0-.92,0a1.09,1.09,0,0,1-.31,0l.31,0,.92,0,3.53,0,13.21-.07,45.38-.08h0a9.88,9.88,0,0,1,2.71.11,6.09,6.09,0,0,1,2.57,1.06,4.23,4.23,0,0,1,1.58,2.36,6.88,6.88,0,0,1,.22,1.42l0,1.39c.13,3.72.1,7.54.1,11.41,0,23.62,0,45-.07,60.51,0,7.72-.07,14-.09,18.34,0,2.14,0,3.82,0,5,0,.55,0,1,0,1.29A2.56,2.56,0,0,1,141.19,452Z" style="fill:#263238"></path></g></svg>
